<?xml version="1.0" encoding="UTF-8"?>
<svg width="42px" height="56px" viewBox="0 0 42 56" version="1.1" xmlns="http://www.w3.org/2000/svg" xmlns:xlink="http://www.w3.org/1999/xlink">
    <!-- Generator: Sketch 52.2 (67145) - http://www.bohemiancoding.com/sketch -->
    <title>car icon</title>
    <desc>Created with Sketch.</desc>
    <g id="Page-1" stroke="none" stroke-width="1" fill="none" fill-rule="evenodd">
        <g id="Desktop-HD" transform="translate(-695.000000, -1016.000000)" fill="#7CA3DC" fill-rule="nonzero">
            <g id="Feature-02" transform="translate(533.000000, 980.000000)">
                <g id="car-icon" transform="translate(162.000000, 36.000000)">
                    <path d="M41.8613645,28.5117505 L35.7672982,18.3550097 C36.0285224,18.1414893 36.2053645,17.8299415 36.2053645,17.4658869 L36.2053645,8.15078363 C36.2054737,7.50716569 35.6846628,6.98635478 35.0410448,6.98635478 L34.8767563,6.98635478 C34.5440312,5.5634308 33.6947524,4.30119298 32.4484522,3.47047173 L28.7085692,0.977871345 C27.7488187,0.338838207 26.6322027,5.68434189e-14 25.4803275,5.68434189e-14 L16.6564522,5.68434189e-14 C15.5044678,5.68434189e-14 14.3878519,0.338838207 13.4270097,0.977871345 L9.68821832,3.47036257 C8.44191813,4.30119298 7.5928577,5.5634308 7.26013255,6.98635478 L7.09562573,6.98635478 C6.4520078,6.98635478 5.93119688,7.50716569 5.93119688,8.15078363 L5.93119688,17.4658869 C5.93119688,17.8299415 6.10803899,18.1414893 6.36926316,18.3550097 L0.275196881,28.5117505 C-0.0556725146,29.0621442 0.122807018,29.7784639 0.674292398,30.1082417 C1.22697856,30.4426043 1.94100585,30.2606316 2.27187524,29.7079454 L7.09562573,21.668616 L7.09562573,36.0962027 L7.09562573,37.2606316 C6.4520078,37.2606316 5.93119688,37.7814425 5.93119688,38.4250604 L5.93119688,47.7401637 C5.93119688,48.3837817 6.4520078,48.9045926 7.09562573,48.9045926 L7.21330214,48.9045926 C7.78443665,52.8441326 11.1512047,55.8909474 15.2464094,55.8909474 L26.8903704,55.8909474 C30.9854659,55.8909474 34.3523431,52.8441326 34.9234776,48.9045926 L35.0410448,48.9045926 C35.6846628,48.9045926 36.2054737,48.3837817 36.2054737,47.7401637 L36.2054737,38.4249513 C36.2054737,37.7813333 35.6846628,37.2605224 35.0410448,37.2605224 L35.0410448,36.0960936 L35.0410448,21.668616 L39.8646862,29.7079454 C40.1944639,30.2606316 40.9086004,30.4424951 41.462269,30.1082417 C42.0137544,29.7784639 42.1922339,29.0620351 41.8613645,28.5117505 Z M9.42437427,20.2768031 L11.7531228,22.6055517 L11.7531228,33.0487329 L9.42437427,34.2123977 L9.42437427,20.2768031 Z M32.7122963,34.2123977 L30.3835478,33.0487329 L30.3835478,22.6055517 L32.7122963,20.2768031 L32.7122963,34.2123977 Z M32.7122963,16.9837193 L28.3958207,21.3001949 C28.1774971,21.5185185 28.0546901,21.8141287 28.0546901,22.1234932 L28.0546901,33.7674542 C28.0546901,34.2086862 28.3036881,34.6111657 28.698308,34.809076 L32.7122963,36.814924 L32.7122963,47.7401637 C32.7122963,50.9513762 30.1003821,53.5620897 26.8903704,53.5620897 L15.2464094,53.5620897 C12.0363977,53.5620897 9.42448343,50.9512671 9.42448343,47.7401637 L9.42448343,36.8148148 L13.4384717,34.8089669 C13.8330916,34.6110565 14.0820897,34.208577 14.0820897,33.767345 L14.0820897,22.1234932 C14.0820897,21.8142378 13.9592827,21.5185185 13.7409591,21.3001949 L9.42448343,16.9837193 L9.42448343,8.31452632 C9.42448343,7.14332943 10.0055517,6.05847953 10.980039,5.40809357 L14.7177388,2.91560234 C15.295423,2.53124366 15.9651306,2.3288577 16.6564522,2.3288577 L25.4803275,2.3288577 C26.1716491,2.3288577 26.8414659,2.53124366 27.4179493,2.91560234 L31.1567407,5.40809357 C32.1312281,6.05847953 32.7122963,7.14332943 32.7122963,8.31452632 L32.7122963,16.9837193 Z" id="Shape"></path>
                    <path d="M30.2606316,42.5617466 L27.931883,37.9041404 C27.7931384,37.6289435 27.5509084,37.4174971 27.2586823,37.3196881 C26.9652554,37.2241715 26.6457388,37.2445848 26.3694503,37.3833294 C26.349037,37.3947914 24.2499649,38.4249513 21.0683353,38.4249513 C17.9230565,38.4249513 15.7842495,37.392499 15.7637271,37.381037 C15.1895361,37.1012554 14.4924288,37.3332242 14.2047875,37.9041404 L11.876039,42.5617466 C11.652039,43.0097466 11.7395867,43.5510799 12.0943626,43.9058558 C12.2035244,44.0150175 14.835961,46.5757349 21.0683353,46.5757349 C27.3007096,46.5757349 29.9331462,44.0150175 30.042308,43.9058558 C30.3970838,43.5510799 30.4846316,43.0098558 30.2606316,42.5617466 Z M21.0683353,44.2468772 C17.5035478,44.2468772 15.3805692,43.3099415 14.3992047,42.7231969 L15.8103392,39.9009279 C16.9008655,40.2762261 18.7497388,40.753809 21.0683353,40.753809 C23.3869318,40.753809 25.2358051,40.2762261 26.3263314,39.9009279 L27.7374659,42.7231969 C26.7516257,43.3122339 24.6286472,44.2468772 21.0683353,44.2468772 Z" id="Shape"></path>
                    <path d="M29.3155088,12.7492242 C28.8881404,12.0577934 28.1479142,11.643961 27.3348772,11.643961 L14.8017934,11.643961 C13.9887563,11.643961 13.2485302,12.0579025 12.8209435,12.7492242 C12.3933567,13.4405458 12.3547135,14.2865497 12.7185497,15.0143314 L15.0472982,19.6719376 C15.4441014,20.465653 16.2424016,20.9591735 17.1304327,20.9591735 L25.0060195,20.9591735 C25.8940507,20.9591735 26.6923509,20.465653 27.089154,19.6719376 L29.4179025,15.0143314 C29.7817388,14.2865497 29.7430955,13.4405458 29.3155088,12.7492242 Z M25.0061287,18.6303158 L17.1305419,18.6303158 L14.8017934,13.9727096 L27.3349864,13.9727096 L25.0061287,18.6303158 Z" id="Shape"></path>
                </g>
            </g>
        </g>
    </g>
</svg>