<?xml version="1.0" encoding="UTF-8"?>
<svg width="36px" height="36px" viewBox="0 0 36 36" version="1.1" xmlns="http://www.w3.org/2000/svg" xmlns:xlink="http://www.w3.org/1999/xlink">
    <!-- Generator: Sketch 52.3 (67297) - http://www.bohemiancoding.com/sketch -->
    <title>cash-on-delivery</title>
    <desc>Created with Sketch.</desc>
    <g id="Desktop" stroke="none" stroke-width="1" fill="none" fill-rule="evenodd">
        <g id="Home" transform="translate(-1032.000000, -3441.000000)" fill="#FFFFFF">
            <g id="cash-on-delivery" transform="translate(1032.000000, 3441.000000)">
                <path d="M12.285,27.6034957 C12.27525,27.5554861 12.261,27.5082266 12.24225,27.4624675 C12.2235,27.4174585 12.20025,27.3739498 12.17325,27.3334417 C12.14625,27.2921834 12.11475,27.2539258 12.08025,27.2194189 C12.04575,27.184912 12.0075,27.1534057 11.96625,27.1264003 C11.92575,27.0993949 11.88225,27.0761402 11.8365,27.0573865 C11.7915,27.0386327 11.74425,27.0236297 11.69625,27.0146279 C11.5995,26.995124 11.49975,26.995124 11.40375,27.0146279 C11.35575,27.0236297 11.3085,27.0386327 11.26275,27.0573865 C11.21775,27.0761402 11.17425,27.0993949 11.13375,27.1264003 C11.0925,27.1534057 11.05425,27.184912 11.01975,27.2194189 C10.98525,27.2539258 10.95375,27.2921834 10.92675,27.3334417 C10.899,27.3739498 10.8765,27.4174585 10.85775,27.4624675 C10.839,27.5082266 10.824,27.5554861 10.815,27.6034957 C10.80525,27.6515053 10.8,27.7010152 10.8,27.749775 C10.8,27.7985347 10.80525,27.8480446 10.815,27.8960542 C10.824,27.9440638 10.839,27.9913233 10.85775,28.0363323 C10.8765,28.0820914 10.899,28.1256001 10.92675,28.1661082 C10.95375,28.2073665 10.98525,28.2456241 11.01975,28.280131 C11.05425,28.3146379 11.0925,28.3461442 11.13375,28.3731496 C11.17425,28.40023 11.21775,28.4234847 11.26275,28.4422384 C11.3085,28.4609922 11.35575,28.4759952 11.40375,28.484997 C11.45175,28.4947489 11.50125,28.5 11.55,28.5 C11.59875,28.5 11.64825,28.4947489 11.69625,28.484997 C11.74425,28.4759952 11.7915,28.4609922 11.8365,28.4422384 C11.88225,28.4234847 11.92575,28.400155 11.96625,28.3731496 C12.0075,28.3461442 12.04575,28.3146379 12.08025,28.280131 C12.11475,28.2456241 12.14625,28.2073665 12.17325,28.1661082 C12.20025,28.1256001 12.2235,28.0820914 12.24225,28.0363323 C12.261,27.9913233 12.27525,27.9440638 12.285,27.8960542 C12.29475,27.8480446 12.3,27.7985347 12.3,27.749775 C12.3,27.7010152 12.29475,27.6515053 12.285,27.6034957 Z" id="Path"></path>
                <path d="M32.4849263,27.8357403 C32.4821721,27.828762 32.4793472,27.8218535 32.4763812,27.8150147 C31.8263903,26.3120987 30.3019766,25.7566262 28.4979058,26.3654827 L23.5779183,27.7099216 C23.293459,26.8587088 22.583935,26.1343614 21.5807005,25.7664656 C21.5744859,25.7642325 21.5682713,25.7619995 21.5619861,25.759906 L16.1537991,23.9461068 C15.7036642,23.3711648 14.2936557,21.9 11.6536503,21.9 C9.80869027,21.9 8.17658037,23.1506506 7.24283639,24.5138611 L0.706204796,24.5138611 C0.316167887,24.5138611 3.65929509e-13,24.8262795 3.65929509e-13,25.2116909 L3.65929509e-13,34.0097196 C3.65929509e-13,34.395131 0.316167887,34.7075494 0.706204796,34.7075494 L4.90508665,34.7075494 C5.29512356,34.7075494 5.61129145,34.395131 5.61129145,34.0097196 L5.61129145,33.4072134 L7.58040228,33.4072134 C7.97043919,33.4072134 8.28660707,33.094795 8.28660707,32.7093836 L8.28660707,32.5085482 C9.43447235,32.6075004 9.81200943,32.8226414 10.866232,33.4233333 C11.6769551,33.8852966 12.902291,34.5834753 15.1088985,35.5638564 C15.1191385,35.5683923 15.1295197,35.5727188 15.1399009,35.5767662 C15.5634119,35.7413843 16.3912958,36 17.4119736,36 C18.1224156,36 18.9264298,35.8746 19.7517007,35.5049595 L30.626619,31.6574052 C30.645969,31.6505664 30.6650365,31.6428903 30.6836803,31.6343768 C31.7230019,31.1618762 33.2717796,29.8302076 32.4849263,27.8357403 Z M4.19888185,33.31182 L1.41240959,33.31182 L1.41240959,25.9094509 L4.19888185,25.9094509 L4.19888185,33.31182 Z M6.87419748,32.011484 L5.61129145,32.011484 L5.61129145,25.9094509 L6.87419748,25.9094509 L6.87419748,32.011484 Z M30.1193521,30.3543476 L19.2493066,34.2001574 C19.2397728,34.203507 19.2268493,34.2085313 19.2174568,34.2122996 C19.207923,34.2161377 19.1983892,34.2201851 19.1889967,34.2244419 C17.6751055,34.9119438 16.236072,34.5003638 15.6720968,34.2836876 C13.5406295,33.335965 12.4030042,32.6877509 11.5718012,32.2141338 C10.4161676,31.5556616 9.85932515,31.2382886 8.28660707,31.1099577 L8.28660707,25.4894969 C8.9560186,24.4053485 10.2541643,23.2955898 11.6537209,23.2955898 C14.0538285,23.2955898 15.0708341,24.8381426 15.1108053,24.900389 C15.1970329,25.038978 15.3295875,25.1434431 15.4854469,25.1957106 L21.0980095,27.0780367 C21.9943953,27.4104828 22.4681174,28.1690238 22.2503945,28.9254713 C22.1499016,29.2748049 21.9177014,29.5645438 21.5966607,29.7413041 C21.2783742,29.9165292 20.9104415,29.9598644 20.5597402,29.8639826 L14.2326396,27.8827042 C13.8606109,27.7662364 13.4638651,27.9697236 13.3460701,28.337131 C13.2282045,28.7045384 13.4341338,29.0967187 13.8059507,29.2131865 L20.1440681,31.1978842 C20.150777,31.1999777 20.157486,31.2020014 20.1642655,31.2038856 C20.4172987,31.2749944 20.6749222,31.3101651 20.9309921,31.3101651 C21.3997708,31.3101651 21.8633943,31.192162 22.2841511,30.9604825 C22.9347776,30.6022865 23.4052512,30.0151325 23.6089207,29.3071842 C23.6251634,29.25066 23.63957,29.1941358 23.6520698,29.1376115 L28.9544672,27.6861256 C29.7202757,27.4276494 30.7255583,27.3344891 31.1731509,28.3531113 C31.6364212,29.5489822 30.432342,30.2068264 30.1193521,30.3543476 Z" id="Shape" fill-rule="nonzero"></path>
                <path d="M25.18575,9.30352588 C25.176,9.25551388 25.16175,9.20825206 25.14225,9.16249062 C25.1235,9.11747937 25.101,9.07396849 25.07325,9.03345836 C25.04625,8.99219805 25.01475,8.95393848 24.98025,8.91942986 C24.94575,8.88492123 24.9075,8.85341335 24.86625,8.8264066 C24.82575,8.79939985 24.78225,8.77614404 24.73725,8.75738935 C24.6915,8.73863466 24.64425,8.72363091 24.597,8.71462866 C24.50025,8.69512378 24.4005,8.69512378 24.30375,8.71462866 C24.25575,8.72363091 24.2085,8.73863466 24.1635,8.75738935 C24.11775,8.77614404 24.07425,8.79939985 24.03375,8.8264066 C23.9925,8.85341335 23.95425,8.88492123 23.91975,8.91942986 C23.88525,8.95393848 23.85375,8.99219805 23.82675,9.03345836 C23.79975,9.07396849 23.7765,9.11747937 23.75775,9.16249062 C23.739,9.20825206 23.724,9.25551388 23.715,9.30352588 C23.70525,9.35153788 23.7,9.40105026 23.7,9.44981245 C23.7,9.49857464 23.70525,9.54808702 23.715,9.59609902 C23.724,9.64411103 23.739,9.69137284 23.75775,9.7363841 C23.7765,9.78214554 23.79975,9.82565641 23.82675,9.86616654 C23.85375,9.90742686 23.88525,9.94568642 23.91975,9.98019505 C23.95425,10.0147037 23.9925,10.0462116 24.03375,10.0732183 C24.07425,10.1002251 24.11775,10.1234809 24.1635,10.1422356 C24.2085,10.1609902 24.25575,10.1752438 24.30375,10.1849962 C24.35175,10.1947487 24.40125,10.2 24.45,10.2 C24.49875,10.2 24.54825,10.1947487 24.597,10.1849962 C24.64425,10.1752438 24.6915,10.1609902 24.73725,10.1422356 C24.78225,10.1234809 24.82575,10.1002251 24.86625,10.0732183 C24.9075,10.0462116 24.94575,10.0147037 24.98025,9.98019505 C25.01475,9.94568642 25.04625,9.90742686 25.07325,9.86616654 C25.101,9.82565641 25.1235,9.78214554 25.14225,9.7363841 C25.16175,9.69137284 25.176,9.64411103 25.18575,9.59609902 C25.1955,9.54808702 25.2,9.49857464 25.2,9.44981245 C25.2,9.40105026 25.1955,9.35153788 25.18575,9.30352588 Z" id="Path"></path>
                <path d="M35.2971315,2.37127147 L31.1180862,2.37127147 C30.7298919,2.37127147 30.4152177,2.6847314 30.4152177,3.07142766 L30.4152177,3.67594252 L28.4554094,3.67594252 C28.0672151,3.67594252 27.7525409,3.98940244 27.7525409,4.3760987 L27.7525409,4.57760365 C26.6100984,4.47825149 26.2343449,4.26246335 25.1851731,3.65976891 C24.3782801,3.19626551 23.1587329,2.49575924 20.9624797,1.51210982 C20.9522881,1.50748878 20.9420262,1.50321783 20.9315535,1.49915693 C20.2166659,1.21895442 18.3430293,0.667651437 16.3418924,1.57106297 L13.5135495,2.579848 L11.1294898,0.205058244 C10.8550197,-0.0683527479 10.4099633,-0.0683527479 10.1354932,0.205058244 L2.30849001,8.00178751 C2.05531678,8.25405378 2.00674856,8.69144135 2.30849001,8.9920184 L15.683164,22.3150805 C15.8971875,22.528348 16.3983327,22.5928324 16.6772309,22.3150805 L23.8229436,15.1970126 C24.0087118,15.2129762 24.2015086,15.2215881 24.4013341,15.2215881 C26.2376484,15.2215881 27.8619775,13.9667682 28.79124,12.5990831 L35.2971315,12.5990831 C35.6853258,12.5990831 36,12.2856231 36,11.8989269 L36,3.07142766 C36,2.6847314 35.6853258,2.37127147 35.2971315,2.37127147 Z M10.6324212,1.69029957 L12.2343991,3.28609555 C11.7582057,3.57946099 11.2076488,3.73643601 10.6324212,3.73643601 C10.0571233,3.73643601 9.5066367,3.57953101 9.03044329,3.28609555 L10.6324212,1.69029957 Z M5.40153318,10.0927339 L3.79955527,8.49686795 L5.40153318,6.90107196 C5.69603508,7.37542778 5.8536182,7.92386012 5.8536182,8.49686795 C5.8536182,9.06987577 5.69610537,9.61830812 5.40153318,10.0927339 Z M16.1802326,20.8297691 L14.5785359,19.2342532 C15.5564368,18.6330991 16.8038879,18.6330991 17.7818591,19.2342532 L16.1802326,20.8297691 Z M18.794552,18.2256082 C17.2413532,17.1032578 15.119112,17.1032578 13.5659132,18.2256082 L6.41415584,11.101379 C6.96302586,10.3494112 7.25935522,9.44613971 7.25935522,8.49686795 C7.25935522,7.54752617 6.96309614,6.64432469 6.41415584,5.89235694 L8.01789092,4.29488059 C8.77277169,4.84163255 9.67947207,5.1368184 10.6324915,5.1368184 C11.5855109,5.1368184 12.4922113,4.84163255 13.2470921,4.29488059 L14.7673263,5.8092484 C14.4392976,5.85748917 14.1194222,5.96517319 13.8211248,6.13076013 C13.3173086,6.41040251 12.9220154,6.82916592 12.6758708,7.33579894 C11.8830351,7.48206157 11.1490296,7.86441686 10.5732397,8.4379148 C9.01111441,9.99408194 9.01111441,12.5260568 10.57331,14.0822239 C11.3543374,14.8602375 12.3803146,15.2493143 13.4063621,15.2493143 C14.4323392,15.2493143 15.4583867,14.8603075 16.2394844,14.0822239 C16.7476584,13.576011 17.1036613,12.9538522 17.281979,12.2758209 L19.6551443,13.0781299 C19.3879839,14.3109649 19.6616106,15.6079343 20.3996929,16.6266615 L18.794552,18.2256082 Z M14.5212521,11.3421627 C14.5274373,11.3444032 14.5336226,11.3466437 14.5398781,11.3487441 L15.945334,11.8239401 C15.8392008,12.3010966 15.5990307,12.7398144 15.2454878,13.092063 C14.2313891,14.1021083 12.581335,14.1022484 11.5673769,13.092063 C10.5532782,12.0819477 10.5532782,10.438331 11.5673769,9.42814569 C11.8119751,9.18435131 12.1006432,8.99383881 12.4151769,8.86465999 C12.5449264,9.94023993 13.3223693,10.8989638 14.5212521,11.3421627 Z M21.4124561,15.6177364 C21.1411489,15.1773382 20.9876424,14.6746961 20.9633934,14.1616916 C21.3000674,14.4041557 21.7115266,14.6417187 22.2029723,14.8302708 L21.4124561,15.6177364 Z M27.7524706,11.6197746 C27.0862919,12.7076773 25.794279,13.8211357 24.4013341,13.8211357 C24.1407105,13.8211357 23.8964637,13.8026515 23.6681017,13.7697442 C23.667188,13.7696042 23.6662743,13.7694641 23.6653605,13.7693241 C22.1474457,13.5496851 21.3309234,12.6903134 21.061795,12.3500375 C21.0474565,12.3290328 20.9863772,12.2494251 20.9773102,12.2361921 C20.895426,12.0904196 20.7611781,11.9732134 20.5899594,11.9153105 L15.0015924,10.025939 C14.1097929,9.69252467 13.6383789,8.93180497 13.8544407,8.17311573 C13.8545813,8.17262562 13.8547219,8.17213551 13.8548625,8.1716454 C13.8550733,8.17108527 13.8552139,8.17045513 13.8553545,8.16989501 C13.9557944,7.82051707 14.1864758,7.53072242 14.505297,7.35379296 C14.8220095,7.17798374 15.1881337,7.13436401 15.5373188,7.23077551 L21.8345286,9.21858895 C22.2046592,9.33558505 22.5996713,9.13127947 22.7169098,8.76264724 C22.8341482,8.394015 22.6292621,8.00052723 22.2592018,7.88367116 L17.2509122,6.30271849 L17.2071938,6.25916877 C17.2067721,6.25874868 17.2063504,6.25825857 17.2058584,6.25783847 L14.6129764,3.6749623 L16.8416319,2.88000496 C16.8491526,2.87727435 16.8584305,2.87384359 16.8658809,2.87083291 C16.8677786,2.87006274 16.8714335,2.86866243 16.873261,2.86789226 C16.88282,2.8640414 16.8922384,2.85998049 16.9015866,2.85570954 C18.4082555,2.16591566 19.8404204,2.57879777 20.4018015,2.79626628 C22.5232695,3.7471484 23.6555907,4.39752348 24.4828669,4.87271949 C25.6330409,5.53345688 26.1872527,5.8518179 27.7524706,5.98057662 L27.7524706,11.6197746 Z M30.4152177,11.1986306 L29.1582779,11.1986306 L29.1582779,5.07625489 L30.4152177,5.07625489 L30.4152177,11.1986306 Z M34.594263,11.1986306 L31.8209547,11.1986306 L31.8209547,3.77158385 L34.594263,3.77158385 L34.594263,11.1986306 Z" id="Shape" fill-rule="nonzero"></path>
            </g>
        </g>
    </g>
</svg>