<?xml version="1.0" encoding="UTF-8"?>
<svg width="31px" height="31px" viewBox="0 0 31 31" version="1.1" xmlns="http://www.w3.org/2000/svg" xmlns:xlink="http://www.w3.org/1999/xlink">
    <!-- Generator: Sketch 52.3 (67297) - http://www.bohemiancoding.com/sketch -->
    <title>Path</title>
    <desc>Created with Sketch.</desc>
    <g id="Desktop" stroke="none" stroke-width="1" fill="none" fill-rule="evenodd">
        <g id="Desktop-HD" transform="translate(-1130.000000, -253.000000)" fill="#FFFFFF">
            <g id="Popup" transform="translate(279.000000, 253.000000)">
                <path d="M880.889829,0.44435787 C880.297315,-0.14811929 879.337517,-0.14811929 878.745145,0.44435787 L866.167108,13.0215944 L853.589071,0.44435787 C852.996556,-0.14811929 852.036759,-0.14811929 851.444386,0.44435787 C850.851871,1.03683503 850.851871,1.99657125 851.444386,2.58890623 L864.022423,15.1661428 L851.444386,27.7433793 C850.851871,28.3358565 850.851871,29.2955927 851.444386,29.8879277 C851.740572,30.1840952 852.128757,30.33225 852.5168,30.33225 C852.904842,30.33225 853.292885,30.1840952 853.589213,29.8879277 L866.16725,17.3106911 L878.745287,29.8879277 C879.041473,30.1840952 879.429658,30.33225 879.8177,30.33225 C880.205743,30.33225 880.593785,30.1840952 880.890114,29.8879277 C881.482629,29.2954505 881.482629,28.3357143 880.890114,27.7433793 L868.312077,15.1661428 L880.890114,2.58890623 C881.482344,1.99657125 881.482344,1.03683503 880.889829,0.44435787 Z" id="Path"></path>
            </g>
        </g>
    </g>
</svg>