<?xml version="1.0" encoding="UTF-8"?>
<svg width="11px" height="20px" viewBox="0 0 11 20" version="1.1" xmlns="http://www.w3.org/2000/svg" xmlns:xlink="http://www.w3.org/1999/xlink">
    <!-- Generator: Sketch 52.3 (67297) - http://www.bohemiancoding.com/sketch -->
    <title>Path</title>
    <desc>Created with Sketch.</desc>
    <g id="Desktop" stroke="none" stroke-width="1" fill="none" fill-rule="evenodd">
        <g id="Home" transform="translate(-1055.000000, -3722.000000)" fill="#4A4A4A">
            <path d="M1065.32763,3722.00412 L1062.75753,3722 C1059.8701,3722 1058.00412,3723.91443 1058.00412,3726.87753 L1058.00412,3729.12639 L1055.42,3729.12639 C1055.1967,3729.12639 1055.01588,3729.30742 1055.01588,3729.53072 L1055.01588,3732.78907 C1055.01588,3733.01237 1055.19691,3733.1932 1055.42,3733.1932 L1058.00412,3733.1932 L1058.00412,3741.41505 C1058.00412,3741.63835 1058.18495,3741.81918 1058.40825,3741.81918 L1061.77979,3741.81918 C1062.00309,3741.81918 1062.18392,3741.63814 1062.18392,3741.41505 L1062.18392,3733.1932 L1065.20536,3733.1932 C1065.42866,3733.1932 1065.60948,3733.01237 1065.60948,3732.78907 L1065.61072,3729.53072 C1065.61072,3729.42351 1065.56804,3729.32082 1065.49237,3729.24495 C1065.4167,3729.16907 1065.31361,3729.12639 1065.20639,3729.12639 L1062.18392,3729.12639 L1062.18392,3727.22 C1062.18392,3726.30371 1062.40227,3725.83856 1063.59588,3725.83856 L1065.32722,3725.83794 C1065.55031,3725.83794 1065.73113,3725.65691 1065.73113,3725.43381 L1065.73113,3722.40825 C1065.73113,3722.18536 1065.55052,3722.00454 1065.32763,3722.00412 Z" id="Path"></path>
        </g>
    </g>
</svg>