<?xml version="1.0" encoding="UTF-8"?>
<svg width="43px" height="36px" viewBox="0 0 43 36" version="1.1" xmlns="http://www.w3.org/2000/svg" xmlns:xlink="http://www.w3.org/1999/xlink">
    <!-- Generator: Sketch 52.3 (67297) - http://www.bohemiancoding.com/sketch -->
    <title>free-delivery</title>
    <desc>Created with Sketch.</desc>
    <g id="Desktop" stroke="none" stroke-width="1" fill="none" fill-rule="evenodd">
        <g id="Home" transform="translate(-185.000000, -3441.000000)" fill="#FFFFFF">
            <g id="free-delivery" transform="translate(185.000000, 3441.000000)">
                <path d="M39.3157982,20.5545138 L38.2210183,16.1754771 C38.5203303,16.1118991 38.7449174,15.8463578 38.7449174,15.5282202 L38.7449174,14.8221743 C38.7449174,13.2892018 37.4977156,12.0420826 35.9648257,12.0420826 L30.9783303,12.0420826 L30.9783303,10.5858165 C30.9783303,9.83146789 30.3646789,9.21781651 29.6103303,9.21781651 L20.3383486,9.21781651 L25.972844,6.96401835 C26.3122844,6.82827523 26.4773394,6.44300917 26.3415963,6.10356881 C26.2058532,5.76421101 25.8208349,5.59899083 25.4811468,5.73481651 L20.8676972,7.58014679 C22.2735138,6.67816514 23.6643853,5.68544037 24.1938991,4.99120183 C25.2247706,3.63963303 24.9636881,1.70141284 23.6121193,0.670541284 C22.2605505,-0.360412844 20.3223303,-0.0992477064 19.2914587,1.2523211 C18.5382661,2.24000917 17.5444679,5.01522936 16.9012569,6.97087156 C16.2580459,5.0153945 15.2642477,2.24000917 14.511055,1.2523211 C13.4802661,-0.0992477064 11.5419633,-0.360247706 10.1903945,0.670541284 C8.83882569,1.70133028 8.57782569,3.63955046 9.60861468,4.99120183 C10.1381284,5.68552294 11.5289174,6.67816514 12.9348165,7.58014679 L8.32136697,5.73481651 C7.98176147,5.59882569 7.59666055,5.76412844 7.46091743,6.10356881 C7.32509174,6.44300917 7.49022936,6.82827523 7.82966972,6.96401835 L13.4641651,9.21781651 L4.19218349,9.21781651 C3.43783486,9.21781651 2.82418349,9.83146789 2.82418349,10.5858165 L2.82418349,22.588844 C2.82418349,22.9543761 3.12052294,23.2507982 3.48613761,23.2507982 C3.85166972,23.2507982 4.14809174,22.9544587 4.14809174,22.588844 L4.14809174,10.5858165 C4.14809174,10.5614587 4.16782569,10.5417248 4.19218349,10.5417248 L29.6102477,10.5417248 C29.6346055,10.5417248 29.6543394,10.5614587 29.6543394,10.5858165 L29.6543394,22.5890092 C29.6543394,22.9545413 29.9506789,23.2509633 30.3162936,23.2509633 C30.6818257,23.2509633 30.9782477,22.9546239 30.9782477,22.5890092 L30.9782477,21.8386239 L38.7864495,21.8386239 C38.7871927,21.8386239 38.7877706,21.838789 38.7885138,21.838789 C38.7892569,21.838789 38.7899174,21.8387064 38.7906606,21.8387064 C39.7514312,21.8394495 40.567211,22.4701101 40.8472844,23.3390642 L38.7890092,23.3390642 C38.4234771,23.3390642 38.127055,23.6354037 38.127055,24.0010183 L38.127055,25.4131101 C38.127055,26.5567706 39.0574404,27.487156 40.2011009,27.487156 L40.9513211,27.487156 L40.9513211,30.3996055 L39.2205138,30.3996055 C38.651945,28.7579725 37.0913119,27.5753394 35.2586972,27.5753394 C33.4260826,27.5753394 31.865367,28.7578899 31.2968807,30.3996055 L30.9781651,30.3996055 L30.9781651,25.4130275 C30.9781651,25.0474954 30.6818257,24.7510734 30.316211,24.7510734 C29.9506789,24.7510734 29.6542569,25.0474128 29.6542569,25.4130275 L29.6542569,30.3995229 L15.9206697,30.3995229 C15.3521009,28.7578899 13.7914679,27.5752569 11.9588532,27.5752569 C10.1262385,27.5752569 8.56552294,28.7578073 7.9970367,30.3995229 L4.19218349,30.3995229 C4.16782569,30.3995229 4.14809174,30.379789 4.14809174,30.3554312 L4.14809174,28.8991651 L7.01644954,28.8991651 C7.38198165,28.8991651 7.67840367,28.6028257 7.67840367,28.237211 C7.67840367,27.8715963 7.38206422,27.5752569 7.01644954,27.5752569 L0.661954128,27.5752569 C0.296422018,27.5752569 0,27.8715963 0,28.237211 C0,28.6028257 0.29633945,28.8991651 0.661954128,28.8991651 L2.82426606,28.8991651 L2.82426606,30.3554312 C2.82426606,31.1097798 3.43791743,31.7234312 4.19226606,31.7234312 L7.76782569,31.7234312 C7.76766055,31.7381284 7.76666972,31.7527431 7.76666972,31.7675229 C7.76666972,34.0790367 9.64733945,35.9597064 11.9588532,35.9597064 C14.270367,35.9597064 16.1510367,34.0790367 16.1510367,31.7675229 C16.1510367,31.7526606 16.1500459,31.7381284 16.1498807,31.7234312 L31.0675872,31.7234312 C31.067422,31.7381284 31.0664312,31.7527431 31.0664312,31.7675229 C31.0664312,34.0790367 32.9471009,35.9597064 35.2586147,35.9597064 C37.5701284,35.9597064 39.4507982,34.0790367 39.4507982,31.7675229 C39.4507982,31.7526606 39.4498073,31.7381284 39.4496422,31.7234312 L41.6131927,31.7234312 C41.9787248,31.7234312 42.2751468,31.4270917 42.2751468,31.0614771 L42.2751468,24.0009358 C42.2752294,22.257578 40.989055,20.809156 39.3157982,20.5545138 Z M14.2761468,6.85808257 C11.6650734,5.23552294 10.890578,4.48901835 10.6612844,4.18830275 C10.0731468,3.41719266 10.2221009,2.31134862 10.9932936,1.72321101 C11.3111835,1.48078899 11.6858807,1.36362385 12.0578532,1.36362385 C12.5881101,1.36362385 13.1127523,1.60191743 13.4584679,2.05522018 C14.098789,2.89477982 15.1015872,5.72053211 15.7636239,7.75676147 C15.316844,7.49369725 14.8032661,7.18579817 14.2761468,6.85808257 Z M18.039055,7.7566789 C18.7010917,5.72053211 19.7038899,2.89486239 20.3441284,2.05513761 C20.9322661,1.28402752 22.0381101,1.13515596 22.8092202,1.72321101 C23.5804128,2.31134862 23.7292844,3.41719266 23.1412294,4.18830275 C22.9119358,4.48893578 22.1374404,5.23552294 19.5265321,6.858 C18.9994954,7.18563303 18.4859174,7.49361468 18.039055,7.7566789 Z M30.9783303,13.3658257 L35.9648257,13.3658257 C36.7678073,13.3658257 37.4210917,14.0191101 37.4210917,14.8220917 L37.4210917,14.8661835 L30.9783303,14.8661835 L30.9783303,13.3658257 Z M30.9783303,20.5147156 L30.9783303,16.1900917 L36.8601193,16.1900917 L37.9412752,20.5147156 L30.9783303,20.5147156 Z M11.9588532,34.6358807 C10.3772477,34.6358807 9.09049541,33.3491284 9.09049541,31.7675229 C9.09049541,30.1859174 10.3772477,28.8991651 11.9588532,28.8991651 C13.5404587,28.8991651 14.827211,30.1859174 14.827211,31.7675229 C14.827211,33.3491284 13.5404587,34.6358807 11.9588532,34.6358807 Z M35.2587798,34.6358807 C33.6771743,34.6358807 32.390422,33.3491284 32.390422,31.7675229 C32.390422,30.1859174 33.6771743,28.8991651 35.2587798,28.8991651 C36.8403853,28.8991651 38.1271376,30.1859174 38.1271376,31.7675229 C38.1271376,33.3491284 36.8403853,34.6358807 35.2587798,34.6358807 Z M40.9514037,26.1631651 L40.2011835,26.1631651 C39.7875138,26.1631651 39.4509633,25.8266147 39.4509633,25.412945 L39.4509633,24.6627248 L40.9513211,24.6627248 L40.9513211,26.1631651 L40.9514037,26.1631651 Z" id="Shape" fill-rule="nonzero"></path>
                <path d="M11.9588532,30.3995229 C11.2045046,30.3995229 10.5908532,31.0131743 10.5908532,31.7675229 C10.5908532,32.5218716 11.2045046,33.1355229 11.9588532,33.1355229 C12.7132018,33.1355229 13.3268532,32.5218716 13.3268532,31.7675229 C13.3268532,31.0131743 12.7132018,30.3995229 11.9588532,30.3995229 Z" id="Path"></path>
                <path d="M35.2587798,30.3995229 C34.5044312,30.3995229 33.8907798,31.0131743 33.8907798,31.7675229 C33.8907798,32.5218716 34.5044312,33.1355229 35.2587798,33.1355229 C36.0131284,33.1355229 36.6267798,32.5218716 36.6267798,31.7675229 C36.6267798,31.0131743 36.0131284,30.3995229 35.2587798,30.3995229 Z" id="Path"></path>
                <path d="M27.4921101,27.5752569 L17.6073028,27.5752569 C17.2417706,27.5752569 16.9453486,27.8715963 16.9453486,28.237211 C16.9453486,28.6028257 17.2416881,28.8991651 17.6073028,28.8991651 L27.4921101,28.8991651 C27.8576422,28.8991651 28.1540642,28.6028257 28.1540642,28.237211 C28.1540642,27.8715963 27.8577248,27.5752569 27.4921101,27.5752569 Z" id="Path"></path>
                <path d="M10.5467615,24.7510734 L2.07404587,24.7510734 C1.70851376,24.7510734 1.41209174,25.0474128 1.41209174,25.4130275 C1.41209174,25.7786422 1.70843119,26.0749817 2.07404587,26.0749817 L10.5467615,26.0749817 C10.9122936,26.0749817 11.2087156,25.7786422 11.2087156,25.4130275 C11.2087156,25.0474128 10.9122936,24.7510734 10.5467615,24.7510734 Z" id="Path"></path>
                <path d="M10.5467615,14.8661835 L7.72249541,14.8661835 C7.3569633,14.8661835 7.06054128,15.1625229 7.06054128,15.5281376 L7.06054128,21.1765872 C7.06054128,21.5421193 7.35688073,21.8385413 7.72249541,21.8385413 C8.08811009,21.8385413 8.38444954,21.5422018 8.38444954,21.1765872 L8.38444954,19.0142752 L9.8407156,19.0142752 C10.2062477,19.0142752 10.5026697,18.7179358 10.5026697,18.3523211 C10.5026697,17.9867064 10.2063303,17.690367 9.8407156,17.690367 L8.38444954,17.690367 L8.38444954,16.1900917 L10.5467615,16.1900917 C10.9122936,16.1900917 11.2087156,15.8937523 11.2087156,15.5281376 C11.208633,15.1626055 10.9122936,14.8661835 10.5467615,14.8661835 Z" id="Path"></path>
                <path d="M15.755945,19.3246514 C16.4183945,18.8907523 16.8571651,18.1425138 16.8571651,17.2932936 C16.8571651,15.9549358 15.7684128,14.8661835 14.430055,14.8661835 L12.6648991,14.8661835 C12.299367,14.8661835 12.002945,15.1625229 12.002945,15.5281376 L12.002945,21.1765872 C12.002945,21.5421193 12.2992844,21.8385413 12.6648991,21.8385413 C13.0305138,21.8385413 13.3268532,21.5422018 13.3268532,21.1765872 L13.3268532,19.7203211 L14.4288165,19.7203211 L15.6443945,21.5436881 C15.7719633,21.735 15.9817706,21.8385413 16.1957064,21.8385413 C16.3219541,21.8385413 16.4494404,21.8025413 16.5622294,21.7272385 C16.8664954,21.5245321 16.9486514,21.1135046 16.7457798,20.8094037 L15.755945,19.3246514 Z M14.430055,18.3964954 L13.3268532,18.3964954 L13.3268532,16.1900917 L14.430055,16.1900917 C15.038422,16.1900917 15.5332569,16.6849266 15.5332569,17.2932936 C15.5332569,17.9016606 15.038422,18.3964954 14.430055,18.3964954 Z" id="Shape" fill-rule="nonzero"></path>
                <path d="M21.1376147,20.5147156 L18.9753028,20.5147156 L18.9753028,19.0121284 C18.9899174,19.0131193 19.0045321,19.0143578 19.0193945,19.0143578 L20.4314862,19.0143578 C20.7970183,19.0143578 21.0934404,18.7180183 21.0934404,18.3524037 C21.0934404,17.986789 20.7971009,17.6904495 20.4314862,17.6904495 L19.0193945,17.6904495 C19.0044495,17.6904495 18.9899174,17.6916881 18.9753028,17.6926789 L18.9753028,16.1900917 L21.1376147,16.1900917 C21.5031468,16.1900917 21.7995688,15.8937523 21.7995688,15.5281376 C21.7995688,15.1626055 21.5032294,14.8661835 21.1376147,14.8661835 L18.3133486,14.8661835 C17.9478165,14.8661835 17.6513945,15.1625229 17.6513945,15.5281376 L17.6513945,21.1765872 C17.6513945,21.5421193 17.9477339,21.8385413 18.3133486,21.8385413 L21.1376147,21.8385413 C21.5031468,21.8385413 21.7995688,21.5422018 21.7995688,21.1765872 C21.7995688,20.8109725 21.5031468,20.5147156 21.1376147,20.5147156 Z" id="Path"></path>
                <path d="M26.0800183,20.5147156 L23.9177064,20.5147156 L23.9177064,19.0143578 L24.6679266,19.0143578 C25.0334587,19.0143578 25.3298807,18.7180183 25.3298807,18.3524037 C25.3298807,17.986789 25.0335413,17.6904495 24.6679266,17.6904495 L23.9177064,17.6904495 L23.9177064,16.1900917 L26.0800183,16.1900917 C26.4455505,16.1900917 26.7419725,15.8937523 26.7419725,15.5281376 C26.7419725,15.1626055 26.445633,14.8661835 26.0800183,14.8661835 L23.2557523,14.8661835 C22.8902202,14.8661835 22.5937982,15.1625229 22.5937982,15.5281376 L22.5937982,21.1765872 C22.5937982,21.5421193 22.8901376,21.8385413 23.2557523,21.8385413 L26.0800183,21.8385413 C26.4455505,21.8385413 26.7419725,21.5422018 26.7419725,21.1765872 C26.7419725,20.8109725 26.4455505,20.5147156 26.0800183,20.5147156 Z" id="Path"></path>
            </g>
        </g>
    </g>
</svg>