<?xml version="1.0" encoding="UTF-8"?>
<svg width="129px" height="55px" viewBox="0 0 129 55" version="1.1" xmlns="http://www.w3.org/2000/svg" xmlns:xlink="http://www.w3.org/1999/xlink">
    <!-- Generator: Sketch 52.2 (67145) - http://www.bohemiancoding.com/sketch -->
    <title>logo</title>
    <desc>Created with Sketch.</desc>
    <g id="Page-1" stroke="none" stroke-width="1" fill="none" fill-rule="evenodd">
        <g id="Desktop-HD" transform="translate(-135.000000, -9.000000)">
            <g id="Header" transform="translate(135.000000, 9.000000)">
                <g id="logo">
                    <path d="M88.0004175,3 C87.9872078,2.20153411 88.3048019,1.43316388 88.8778867,0.877098082 C90.0510235,-0.292366027 91.9489977,-0.292366027 93.1221346,0.877098082 C93.6949185,1.43336805 94.0124563,2.20160201 93.9996038,3 C94.0128135,3.79846589 93.6952194,4.56683612 93.1221346,5.12290192 C91.9489977,6.29236603 90.0510235,6.29236603 88.8778867,5.12290192 C88.3045003,4.56704086 87.9868497,3.79853388 88.0004175,3 Z" id="Path" fill="#7CA3DC"></path>
                    <path d="M106.000417,3 C105.987208,2.20153411 106.304802,1.43316388 106.877887,0.877098082 C108.051024,-0.292366027 109.948998,-0.292366027 111.122135,0.877098082 C111.694918,1.43336805 112.012456,2.20160201 111.999604,3 C112.012814,3.79846589 111.695219,4.56683612 111.122135,5.12290192 C109.948998,6.29236603 108.051024,6.29236603 106.877887,5.12290192 C106.3045,4.56704086 105.98685,3.79853388 106.000417,3 Z" id="Path" fill="#7CA3DC"></path>
                    <rect id="Rectangle" fill="#7CA3DC" x="70" y="54" width="14" height="1"></rect>
                    <path d="M0,30.5458011 L0.651660173,30.5458011 C0.93947222,31.5634759 1.29544237,32.5590661 1.71697385,33.5253089 C2.15506641,34.535889 2.74435691,35.4683305 3.46304896,36.2881448 C4.22208207,37.1501132 5.1370582,37.8489464 6.15595407,38.3449107 C7.22092131,38.8774276 8.50276216,39.1433268 10.0014766,39.1426081 C11.2258419,39.1566936 12.4176713,38.7338644 13.3772218,37.944984 C14.3631999,37.1465679 14.8565355,35.8472553 14.8572283,34.0470462 C14.8572283,32.4918954 14.4723296,31.3970377 13.7025322,30.762473 C12.8940528,30.1044413 11.983388,29.5940867 11.0096271,29.2533156 L6.39292141,27.5964765 C5.80327462,27.3938182 5.16200775,27.1390581 4.4691208,26.8321961 C3.76334941,26.5142138 3.11327337,26.0771027 2.5453202,25.5386326 C1.92312981,24.9455822 1.42748575,24.2240474 1.09025761,23.4204225 C0.714712885,22.5580469 0.527286966,21.4531281 0.527979853,20.1056662 C0.518493306,19.0048377 0.740893986,17.915139 1.17964003,16.9127204 C2.05008605,14.9140096 3.66152309,13.3643227 5.64876083,12.6148559 C6.73804482,12.1976298 7.8914266,11.9894256 9.05256795,12.0004132 C9.92006241,12.0004132 10.6205711,12.0722779 11.1540941,12.2160072 C11.687617,12.3597364 12.1511584,12.5034657 12.5447182,12.647195 C12.9389708,12.7909242 13.2940754,12.9346535 13.6100318,13.0783828 C13.9664118,13.2303571 14.3493763,13.303777 14.7345874,13.2939767 C15.1683346,13.2939767 15.4839446,13.1301253 15.6814174,12.8024226 L16.3330775,12.8024226 L16.3330775,19.8027567 L15.6814174,19.8027567 C15.4100849,18.9165923 15.0940391,18.0458295 14.7345874,17.1940705 C14.4017864,16.3949857 13.9740845,15.6421288 13.4614076,14.9529718 C12.9716003,14.3016497 12.3434851,13.7763449 11.6259501,13.4179432 C10.8956472,13.0492776 10.0375067,12.8649448 9.05152862,12.8649448 C7.15717571,12.8649448 5.68721605,13.3047564 4.64164965,14.1843795 C3.59608325,15.0640027 3.07468582,16.2411454 3.07745737,17.7158077 C3.07745737,19.0259 3.52125146,20.0183506 4.40883964,20.6931596 C5.29642782,21.3679685 6.60875569,21.9921129 8.34582327,22.5655927 L12.6673591,24.039177 C14.5215246,24.6945825 16.0406792,25.5950464 17.224823,26.7405687 C18.4089668,27.886091 19.0006923,29.4002788 18.9999994,31.2831323 C18.9972241,32.3992219 18.7854352,33.5041245 18.3764011,34.5364443 C17.966044,35.5938993 17.3398924,36.5467153 16.5409436,37.3294634 C15.6802017,38.1612757 14.6759993,38.8173553 13.5809306,39.2633407 C12.4161876,39.7541762 11.0844589,39.9995939 9.58574446,39.9995939 C8.77875652,40.0069512 7.97380986,39.9143083 7.18800918,39.7236337 C6.45770634,39.5396603 5.78699177,39.3452664 5.17586549,39.1404522 C4.5647392,38.935638 4.00350077,38.7416035 3.49215021,38.5583487 C3.03661315,38.3852075 2.55645915,38.2919454 2.07138553,38.2823885 C1.63694541,38.2823885 1.32133541,38.3743752 1.12455551,38.5583487 C0.93936614,38.7270857 0.779612565,38.9236641 0.650620842,39.1415302 L0,39.1415302 L0,30.5458011 Z" id="Path" fill="#7CA3DC"></path>
                    <path d="M24,54.1635281 L28.5019944,54.1635281 L28.5019944,13.6113717 L24,13.6113717 L24,12.7748998 L33.4136343,12.7748998 L33.4136343,17.7770016 L33.5306758,17.7770016 C34.0904436,16.145301 35.0946394,14.7095445 36.4259151,13.6375114 C37.7708667,12.5459156 39.5162236,12.0001177 41.6619861,12.0001177 C43.3028147,11.9923465 44.9233687,12.3694379 46.3980636,13.1021694 C49.3978311,14.5773767 51.7526676,17.1346947 53.0057798,20.2780525 C54.3412969,23.5896084 54.3309569,27.3057313 52.9770328,30.6095257 C52.3149787,32.2254487 51.3744435,33.7077381 50.1998618,34.9863648 C49.0426664,36.246122 47.6644701,37.2745154 46.13626,38.0185754 C44.6144038,38.7682272 42.9449132,39.1551165 41.2543939,39.1499036 C39.928607,39.1499036 38.807814,38.9216165 37.892015,38.4650422 C37.0544552,38.069091 36.2911406,37.5273712 35.6363977,36.8642442 C35.0914723,36.3060896 34.6374518,35.6629895 34.2914462,34.9591795 C34.0378017,34.4506765 33.8226016,33.9232156 33.6477174,33.3813844 L33.5317025,33.3813844 L33.5317025,54.1635281 L38.0336969,54.1635281 L38.0336969,55 L24,55 L24,54.1635281 Z M48.1495807,24.6873049 C48.1605835,23.0443791 48.0628273,21.4025665 47.8569767,19.7730326 C47.6612229,18.3245421 47.3189961,17.0841241 46.8302961,16.0517784 C46.3885748,15.0731364 45.6778554,14.2458219 44.7841217,13.6699247 C43.9073365,13.1122768 42.7865435,12.8334528 41.4217428,12.8334528 C39.9789144,12.8334528 38.7900182,13.091365 37.8550545,13.6071893 C36.9637086,14.0853844 36.18553,14.7558609 35.5747969,15.5718526 C35.1516754,16.1152969 34.8060355,16.7168749 34.5481163,17.3587657 C34.267224,18.0895057 34.0608039,18.8477062 33.932108,19.6214221 C33.765576,20.6164188 33.6609881,21.621144 33.6189704,22.6295841 C33.5607918,23.7609123 33.5317025,25.1006614 33.5317025,26.6488314 C33.5346928,28.0040514 33.6324749,29.357333 33.8243065,30.6984009 C33.9958994,32.0105917 34.3708507,33.2867426 34.9351749,34.4792537 C35.4614242,35.5872322 36.2565006,36.5401826 37.2452062,37.2479757 C38.239033,37.962462 39.5545531,38.3197052 41.1917664,38.3197052 C42.7892813,38.3197052 44.0555207,38.0021945 44.9904845,37.3671729 C45.9254483,36.7321513 46.6270134,35.8190029 47.0951797,34.6277275 C47.5626616,33.4364521 47.8549233,31.997372 47.9719649,30.310487 C48.0890065,28.6236021 48.1482118,26.749208 48.1495807,24.6873049 Z" id="Shape" fill="#7CA3DC" fill-rule="nonzero"></path>
                    <path d="M59,37.169992 L63.623195,37.169992 L63.623195,13.4763767 L59,13.4763767 L59,12.6463687 L68.6670639,12.6463687 L68.6670639,18.6172386 L68.7872565,18.6172386 C68.9857401,17.9260805 69.246853,17.2538447 69.5674536,16.6086193 C69.955768,15.8199557 70.461822,15.0929112 71.0688059,14.4516361 C71.7326142,13.7448597 72.5146517,13.1553134 73.3809306,12.7086193 C74.2813202,12.2362064 75.3707846,12 76.6493239,12 C77.570097,12 78.3706777,12.1476723 79.0510658,12.4430168 C79.6832565,12.7038856 80.2568824,13.085024 80.7390328,13.564565 C81.1737969,14.0094449 81.5019659,14.5443639 81.6995187,15.1301676 C81.8963322,15.7013546 81.9978072,16.3001468 82,16.9032721 C82,18.2029263 81.6998701,19.069593 81.0996104,19.5032721 C80.4899453,19.9395416 79.7520153,20.1676293 78.9983498,20.1527534 C77.2362289,20.1527534 76.3555199,19.6011439 76.3562228,18.497925 C76.3463147,18.2076084 76.3869655,17.9177641 76.4764153,17.6409417 C76.5558408,17.4251397 76.6458095,17.2083001 76.7463213,16.990423 C76.8541766,16.7508757 76.9443781,16.5040027 77.0162274,16.2517159 C77.1086873,15.8646839 77.1490969,15.4673792 77.1364199,15.069992 C77.1364199,13.8097632 76.4359997,13.1796488 75.0351593,13.1796488 C74.3941325,13.1796488 73.7137444,13.4158553 72.993995,13.8882682 C72.2742455,14.360681 71.6036978,15.0499335 70.9823516,15.9560255 C70.3610054,16.8628093 69.8405226,17.9559989 69.420903,19.2355946 C69.0012835,20.5151902 68.7904194,21.9825752 68.7883108,23.6377494 L68.7883108,37.169992 L74.0124685,37.169992 L74.0124685,38 L59,38 L59,37.169992 Z" id="Path" fill="#7CA3DC"></path>
                    <polygon id="Path" fill="#7CA3DC" points="83 37.1815689 87.4894644 37.1815689 87.4894644 13.8184311 83 13.8184311 83 13 92.508487 13 92.508487 37.1815689 97 37.1815689 97 38 83 38"></polygon>
                    <polygon id="Path" fill="#7CA3DC" points="102 37.1815689 106.491513 37.1815689 106.491513 13.8184311 102 13.8184311 102 13 111.508487 13 111.508487 37.1815689 116 37.1815689 116 38 102 38"></polygon>
                    <path d="M123.000397,34.9955868 C123.00256,33.5649037 124.01468,32.3348473 125.4181,32.0572892 C126.821519,31.779731 128.225628,32.531923 128.772164,33.8540882 C129.318701,35.1762534 128.85555,36.7003969 127.665812,37.4948865 C126.476074,38.2893761 124.890885,38.1330837 123.879193,37.1215428 C123.305241,36.564677 122.987167,35.7952014 123.000397,34.9955868 Z" id="Path" fill="#7CA3DC"></path>
                    <path d="M43.2977229,48.5915858 C42.9425194,48.8737717 42.512263,49.0169363 42.0751063,48.9984024 C41.7667019,49.0064933 41.4601447,48.9436306 41.174903,48.8138064 C40.929429,48.6963716 40.7111704,48.5191114 40.5364609,48.2952916 C40.3581279,48.0626463 40.2255061,47.7915805 40.1470112,47.4992948 C40.0574893,47.1717851 40.0081023,46.8324934 40.0001695,46.4904835 C39.9966549,46.1500966 40.0478135,45.8117194 40.1512675,45.4910784 C40.2458768,45.2009886 40.3904114,44.9338784 40.5768956,44.7044878 C40.7565316,44.4835704 40.9762356,44.3069031 41.2217221,44.1859729 C41.4787462,44.0608452 41.757017,43.9979055 42.0378639,44.0013769 C42.3731865,43.9874953 42.7052133,44.078808 42.995527,44.2647496 C43.24338,44.4337156 43.4527269,44.6634295 43.6073673,44.9361146 C43.7615894,45.2086157 43.8697507,45.509795 43.9265884,45.8249973 C43.9836955,46.1260114 44.0076336,46.4335545 43.9978811,46.7409227 L40.7514031,46.7409227 C40.744833,46.9426935 40.7674634,47.1443292 40.8184395,47.3382142 C40.8663441,47.5218985 40.9490413,47.692231 41.0610475,47.8379167 C41.1771568,47.9893134 41.3226318,48.1098731 41.4866755,48.190648 C41.6799429,48.281474 41.8885561,48.325572 42.0985159,48.3199827 C42.3632211,48.3321169 42.6244167,48.2496556 42.843365,48.0848286 C43.046752,47.9116011 43.1829304,47.6594107 43.2243021,47.3793662 L43.9276525,47.3793662 C43.8311768,47.9163015 43.6212003,48.3203747 43.2977229,48.5915858 Z M43.1264076,45.5192969 C43.0657994,45.3586875 42.977634,45.2125567 42.8667745,45.0889648 C42.7559822,44.9672377 42.625266,44.8698816 42.4815811,44.8020768 C42.3268417,44.7295147 42.1601963,44.6930872 41.9921089,44.6950816 C41.8212164,44.6924665 41.6516779,44.7288929 41.494124,44.8020768 C41.3505573,44.8697111 41.2209484,44.9689212 41.1131869,45.0936679 C41.0061788,45.218772 40.9210393,45.364671 40.8620664,45.524 C40.8007859,45.6907488 40.7648337,45.8675307 40.7556593,46.047218 L43.2434554,46.047218 C43.2314054,45.8651266 43.1914674,45.686617 43.1253436,45.5192969 L43.1264076,45.5192969 Z" id="Shape" fill="#435363" fill-rule="nonzero"></path>
                    <polygon id="Path" fill="#435363" points="44.6291105 49 43 45 43.806469 45 45.0312668 48.3344802 45.0485175 48.3344802 46.245283 45 47 45 45.3956873 49"></polygon>
                    <path d="M51.2977229,48.5915858 C50.9425194,48.8737717 50.512263,49.0169363 50.0751063,48.9984024 C49.7667019,49.0064933 49.4601447,48.9436306 49.174903,48.8138064 C48.929429,48.6963716 48.7111704,48.5191114 48.5364609,48.2952916 C48.3581279,48.0626463 48.2255061,47.7915805 48.1470112,47.4992948 C48.0574893,47.1717851 48.0081023,46.8324934 48.0001695,46.4904835 C47.9966549,46.1500966 48.0478135,45.8117194 48.1512675,45.4910784 C48.2458768,45.2009886 48.3904114,44.9338784 48.5768956,44.7044878 C48.7565316,44.4835704 48.9762356,44.3069031 49.2217221,44.1859729 C49.4787462,44.0608452 49.757017,43.9979055 50.0378639,44.0013769 C50.3731865,43.9874953 50.7052133,44.078808 50.995527,44.2647496 C51.24338,44.4337156 51.4527269,44.6634295 51.6073673,44.9361146 C51.7615894,45.2086157 51.8697507,45.509795 51.9265884,45.8249973 C51.9836955,46.1260114 52.0076336,46.4335545 51.9978811,46.7409227 L48.7524671,46.7409227 C48.7458971,46.9426935 48.7685275,47.1443292 48.8195035,47.3382142 C48.8674082,47.5218985 48.9501054,47.692231 49.0621115,47.8379167 C49.1782209,47.9893134 49.3236958,48.1098731 49.4877396,48.190648 C49.681007,48.281474 49.8896202,48.325572 50.0995799,48.3199827 C50.3642852,48.3321169 50.6254808,48.2496556 50.844429,48.0848286 C51.0478161,47.9116011 51.1839944,47.6594107 51.2253662,47.3793662 L51.9287165,47.3793662 C51.8322408,47.9163015 51.6219096,48.3203747 51.2977229,48.5915858 Z M51.1264076,45.5192969 C51.0657994,45.3586875 50.977634,45.2125567 50.8667745,45.0889648 C50.7559822,44.9672377 50.625266,44.8698816 50.4815811,44.8020768 C50.3268417,44.7295147 50.1601963,44.6930872 49.9921089,44.6950816 C49.8212164,44.6924665 49.6516779,44.7288929 49.494124,44.8020768 C49.3505573,44.8697111 49.2209484,44.9689212 49.1131869,45.0936679 C49.0061788,45.218772 48.9210393,45.364671 48.8620664,45.524 C48.8007859,45.6907488 48.7648337,45.8675307 48.7556593,46.047218 L51.2434554,46.047218 C51.231743,45.8651957 51.1921654,45.6866887 51.1264076,45.5192969 Z" id="Shape" fill="#435363" fill-rule="nonzero"></path>
                    <path d="M53.5838393,44.1176311 L53.5838393,45.1461292 L53.5987856,45.1461292 C53.7217348,44.7950884 53.9151622,44.4922712 54.1592714,44.2686693 C54.4108067,44.0691225 54.7050921,43.9768119 55,44.0049519 L55,44.8536426 C54.7821952,44.8466357 54.5652566,44.8913393 54.3601121,44.9855013 C54.1940902,45.0643239 54.0471734,45.197864 53.9341429,45.3726864 C53.8215875,45.5544706 53.7412557,45.7655469 53.6987389,45.9912237 C53.6465215,46.2657792 53.6217235,46.547741 53.6249416,46.8303247 L53.6249416,49 L53,49 L53,44.1176311 L53.5838393,44.1176311 Z" id="Path" fill="#435363"></path>
                    <path d="M57.1406824,49.8598434 C57.0708801,50.0403515 56.9895209,50.2161505 56.8971129,50.3861422 C56.827307,50.5164776 56.7380934,50.6353832 56.6325459,50.7387625 C56.5404136,50.8272642 56.4305407,50.8950817 56.3102362,50.9377034 C56.1781907,50.9812707 56.0397777,51.0022645 55.9007874,50.9998067 C55.8179162,50.9997195 55.735143,50.9940931 55.6530184,50.9829651 C55.5714217,50.9721506 55.4911887,50.9527458 55.4136483,50.9250723 L55.4136483,50.2787773 C55.4813044,50.3087688 55.5515991,50.3323788 55.623622,50.3493013 C55.689814,50.366878 55.7578018,50.3767672 55.8262467,50.3787741 C55.9540385,50.3827637 56.0797842,50.3459003 56.1853018,50.2735143 C56.2858197,50.1995521 56.3621843,50.0973459 56.4047244,49.9798395 L56.6934383,49.2588101 L55,45 L55.7937008,45 L57.0419948,48.5040976 L57.0587927,48.5040976 L58.2566929,45 L59,45 L57.1406824,49.8598434 Z" id="Path" fill="#435363"></path>
                    <path d="M62,44.3839372 L62,45.0532184 L61.2539098,45.0532184 L61.2539098,47.9197835 C61.2524293,47.9919329 61.2586149,48.0640109 61.2723091,48.1341803 C61.2826513,48.1845076 61.3070904,48.2287056 61.3413063,48.2589615 C61.3835715,48.2924338 61.4319613,48.312323 61.4820607,48.3168147 C61.5602863,48.3269379 61.6389207,48.331483 61.7175713,48.3304272 L62,48.3304272 L62,48.9997083 L61.5289788,48.9997083 C61.3918137,49.0021844 61.2547598,48.9888926 61.1195952,48.9600052 C61.018923,48.9405993 60.9239308,48.8898423 60.8436063,48.8125364 C60.7688439,48.7320661 60.7148008,48.6263906 60.6881325,48.508524 C60.6503544,48.339809 60.633299,48.1650645 60.6375345,47.9901147 L60.6375345,45.0532184 L60,45.0532184 L60,44.3839372 L60.6375345,44.3839372 L60.6375345,43 L61.2529899,43 L61.2529899,44.3839372 L62,44.3839372 Z" id="Path" fill="#435363"></path>
                    <path d="M63.7957015,43 L63.7957015,45.294306 L63.8123281,45.294306 C63.8705372,45.1649098 63.9597431,45.0486309 64.0736033,44.9537367 C64.186237,44.8612841 64.3140125,44.7849476 64.4524522,44.7274021 C64.5927094,44.668585 64.7402035,44.6248658 64.8918695,44.597153 C65.0379956,44.5699078 65.186802,44.5559585 65.3360372,44.555516 C65.6068228,44.5482194 65.8766205,44.5880985 66.1305511,44.6729537 C66.3291551,44.7428335 66.5057071,44.855362 66.6447881,45.0007117 C66.7784459,45.1458238 66.8727682,45.3168693 66.9203146,45.5003559 C66.9752745,45.7102446 67.0019893,45.9253082 66.9998847,46.1409253 L66.9998847,48.9978648 L66.2053708,48.9978648 L66.2053708,46.0587189 C66.2199013,45.8219916 66.1254085,45.5903232 65.9440957,45.4181495 C65.7500061,45.2546999 65.4899307,45.1698231 65.2244014,45.183274 C65.0088568,45.1786376 64.7944536,45.2127572 64.5937783,45.2836299 C64.4229959,45.3466716 64.2709148,45.4446381 64.1496106,45.5697509 C64.0293108,45.6962172 63.9388095,45.8433134 63.883585,46.0021352 C63.8224766,46.177608 63.7924197,46.360623 63.7945139,46.544484 L63.7945139,49 L63,49 L63,43 L63.7957015,43 Z" id="Path" fill="#435363"></path>
                    <path d="M68,43.8743772 L68,43 L69,43 L69,43.8743772 L68,43.8743772 Z M69,44.6558719 L69,49 L68,49 L68,44.6558719 L69,44.6558719 Z" id="Shape" fill="#435363" fill-rule="nonzero"></path>
                    <path d="M70.7470093,44.1150042 L70.7470093,44.8893523 L70.7660112,44.8893523 C71.0961679,44.2970861 71.6195099,44.0009529 72.3360372,44.0009529 C72.6068228,43.9927479 72.8766205,44.0375921 73.1305511,44.1330123 C73.3291551,44.2115924 73.5057071,44.3381314 73.6447881,44.501578 C73.7784459,44.6647572 73.8727682,44.8570989 73.9203146,45.0634305 C73.9752745,45.2994515 74.0019893,45.5412918 73.9998847,45.7837543 L73.9998847,48.9963984 L73.2053708,48.9963984 L73.2053708,45.6925133 C73.2199013,45.4263122 73.1254085,45.1657999 72.9440957,44.9721895 C72.7500061,44.7883895 72.4899307,44.6929452 72.2244014,44.7080708 C72.0088568,44.7028571 71.7944536,44.7412248 71.5937783,44.8209215 C71.4229959,44.8918122 71.2709148,45.0019761 71.1496106,45.1426661 C71.0293108,45.2848782 70.9388095,45.4502886 70.883585,45.6288847 C70.8224766,45.8262048 70.7924197,46.0320061 70.7945139,46.2387588 L70.7945139,49 L70,49 L70,44.1150042 L70.7470093,44.1150042 Z" id="Path" fill="#435363"></path>
                    <path d="M78.5178876,50.4837359 C78.1908297,50.827912 77.6780574,51 76.9795706,51 C76.7705845,50.9994007 76.5622471,50.9775969 76.3580176,50.9349507 C76.1562432,50.8963865 75.962293,50.8266487 75.7836983,50.7284451 C75.6130149,50.6331304 75.4663765,50.5026661 75.3543006,50.3464097 C75.2367834,50.1748288 75.1723772,49.9746604 75.1685862,49.7692264 L75.8867537,49.7692264 C75.8893945,49.8851061 75.9325004,49.9967598 76.009132,50.0862126 C76.087038,50.1721406 76.1819089,50.2423333 76.2882405,50.2927182 C76.4014286,50.3479262 76.5221261,50.3875502 76.6467875,50.4104264 C76.7691042,50.4339114 76.8934878,50.4460134 77.0182164,50.4465649 C77.2250302,50.4526466 77.4304775,50.4123475 77.6182996,50.3288567 C77.7784113,50.2528516 77.9174825,50.1413816 78.0240803,50.0036103 C78.1366121,49.8541979 78.2159119,49.6840761 78.2570285,49.5038667 C78.3067085,49.2931791 78.3308441,49.0776649 78.3289526,48.8616342 L78.3289526,48.5849167 L78.3117767,48.5849167 C78.1997018,48.8329786 78.0011412,49.0356473 77.7503393,49.1579698 C77.5030055,49.2790976 77.2292065,49.3417495 76.9516598,49.3407273 C76.6573753,49.3475271 76.3653971,49.2892404 76.098232,49.1703601 C75.8628403,49.0618709 75.6550645,48.9050246 75.4895609,48.7108851 C75.3223602,48.5114932 75.1976096,48.2823896 75.1224259,48.0366442 C75.0396441,47.771767 74.9983976,47.4964957 75.0000476,47.2199144 C75.0011338,46.9608567 75.0350195,46.7028904 75.1009561,46.4517135 C75.1656802,46.1947996 75.28042,45.952005 75.4391067,45.7361715 C75.6029425,45.5166217 75.8166004,45.3358342 76.0638802,45.2075171 C76.3585104,45.0616158 76.6870094,44.990533 77.0182164,45.0010114 C77.2826137,44.9982749 77.5436434,45.0582051 77.7782502,45.1755087 C78.0085996,45.2936012 78.195891,45.4766276 78.3149972,45.700033 L78.3235851,45.700033 L78.3235851,45.0991016 L78.9998864,45.0991016 L78.9998864,48.9432039 C79.004896,49.6288026 78.8442298,50.1423133 78.5178876,50.4837359 Z M77.6011237,48.5911118 C77.7641136,48.4992071 77.9017967,48.3710272 78.0026104,48.2173366 C78.1068589,48.0556605 78.1823244,47.878384 78.2258972,47.6928123 C78.2733958,47.5010077 78.2975328,47.3045392 78.2978213,47.1073689 C78.2978284,46.9240482 78.275125,46.7413798 78.2301912,46.5632265 C78.1882962,46.3913969 78.1156472,46.2278857 78.0154924,46.0800034 C77.9177523,45.9369961 77.7860161,45.8184276 77.6311815,45.7341064 C77.4548921,45.6431082 77.2568443,45.5982451 77.0568622,45.6040079 C76.851901,45.5983084 76.6486696,45.6415898 76.465367,45.7299763 C76.3058972,45.8107311 76.1683758,45.926382 76.0638802,46.067613 C75.9568642,46.2148711 75.8796569,46.3802069 75.8362995,46.5549663 C75.7878412,46.7438018 75.7636855,46.9376481 75.7643754,47.1321495 C75.7644638,47.3232011 75.7842412,47.5137738 75.8234175,47.7010726 C75.8597873,47.8830727 75.9284169,48.0577041 76.0263079,48.2173366 C76.1197634,48.3695999 76.2501481,48.497843 76.4063248,48.5911118 C76.5855081,48.6914659 76.7906114,48.7408745 76.99782,48.7336007 C77.2086301,48.7395666 77.4171627,48.6903151 77.6011237,48.5911118 Z" id="Shape" fill="#435363" fill-rule="nonzero"></path>
                    <path d="M82,45.32694 L82,44.7040296 L82.6110616,44.7040296 L82.6110616,44.0642266 C82.6110616,43.7122998 82.696402,43.4476509 82.867083,43.2702798 C83.0377639,43.0929087 83.2869462,43.0028154 83.6146298,43 C83.6790939,43.0008427 83.7434494,43.0064846 83.8073149,43.0168925 C83.872727,43.0261675 83.9372457,43.0427828 84,43.0665142 L84,43.6820341 C83.9454753,43.6592248 83.8888962,43.6439898 83.8314005,43.6366356 C83.7754484,43.6286414 83.7191581,43.6244115 83.6628011,43.6239662 C83.5444617,43.6153367 83.4267424,43.6499835 83.3256021,43.7232096 C83.2459114,43.7893718 83.206066,43.9167693 83.206066,44.1054021 L83.206066,44.7040296 L83.9081178,44.7040296 L83.9081178,45.32694 L83.206066,45.32694 L83.206066,49 L82.6066012,49 L82.6066012,45.32694 L82,45.32694 Z" id="Path" fill="#435363"></path>
                    <path d="M85.1277536,45.5232648 C85.206903,45.2299715 85.3372706,44.9587835 85.5107135,44.7266393 C85.684749,44.4976629 85.8998392,44.3157211 86.1408751,44.1935944 C86.6934689,43.9354685 87.3105876,43.9354685 87.8631815,44.1935944 C88.1025813,44.3166703 88.3161831,44.4985226 88.4892905,44.7266393 C88.6627335,44.9587835 88.793101,45.2299715 88.8722504,45.5232648 C88.9590261,45.8421565 89.002103,46.1749091 88.9999037,46.5093389 C89.0023206,46.842245 88.9592336,47.1734874 88.8722504,47.4907063 C88.7924623,47.7822658 88.6621341,48.0517702 88.4892905,48.282625 C88.3167677,48.5103128 88.1029359,48.6907533 87.8631815,48.810963 C87.3095869,49.0630123 86.6944696,49.0630123 86.1408751,48.810963 C85.899494,48.6917022 85.6841714,48.5111722 85.5107135,48.282625 C85.3377521,48.0518667 85.2074095,47.7823325 85.1277536,47.4907063 C85.0407202,47.173501 84.997632,46.8422493 85.0001003,46.5093389 C84.9978674,46.1749064 85.0409451,45.8421476 85.1277536,45.5232648 Z M85.8176893,47.288314 C85.8753934,47.4962066 85.968794,47.6883501 86.0922452,47.8531297 C86.205466,48.0038302 86.3454463,48.1242609 86.5025594,48.2061395 C86.8205153,48.3665363 87.1815149,48.3665363 87.4994709,48.2061395 C87.6565514,48.1241963 87.7965206,48.0037752 87.909785,47.8531297 C88.0331673,47.6882935 88.1265595,47.4961672 88.184341,47.288314 C88.3172339,46.7844757 88.3172339,46.2459691 88.184341,45.7421309 C88.1258987,45.5331975 88.0326054,45.3396753 87.909785,45.1726083 C87.7969648,45.0214047 87.6568816,44.9008855 87.4994709,44.8195985 C87.1815403,44.65906 86.82049,44.65906 86.5025594,44.8195985 C86.345115,44.9008185 86.2050201,45.0213479 86.0922452,45.1726083 C85.9708996,45.3396522 85.8789914,45.5327575 85.8217418,45.7409542 C85.6888489,46.2447924 85.6888489,46.783299 85.8217418,47.2871373 L85.8176893,47.288314 Z" id="Shape" fill="#435363" fill-rule="nonzero"></path>
                    <path d="M89.5845005,44.1176311 L89.5845005,45.1461292 L89.5994398,45.1461292 C89.7223316,44.7950884 89.9156687,44.4922712 90.1596639,44.2686693 C90.4110818,44.0691225 90.7052298,43.9768119 91,44.0049519 L91,44.8536426 C90.7822969,44.8466357 90.5654595,44.8913393 90.3604108,44.9855013 C90.1941487,45.0641895 90.046973,45.1977347 89.9337068,45.3726864 C89.8212548,45.5545118 89.7409662,45.7655731 89.6984127,45.9912237 C89.6461997,46.2657746 89.621413,46.5477397 89.6246499,46.8303247 L89.6246499,49 L89,49 L89,44.1176311 L89.5845005,44.1176311 Z" id="Path" fill="#435363"></path>
                    <path d="M96.6621878,44.1117486 L96.6621878,44.8316678 L96.6779542,44.8316678 C97.1428407,44.0531137 98.036825,43.7801244 98.7801378,44.1897399 C99.0017394,44.3245271 99.1659674,44.5561625 99.2352606,44.8316678 C99.3729258,44.5730561 99.5684834,44.3610015 99.8017991,44.2173368 C100.039482,44.0715867 100.305613,43.9968753 100.575403,44.0001612 C100.772101,43.9976418 100.968236,44.0246706 101.158759,44.0805521 C101.321271,44.1279222 101.47339,44.2133172 101.605473,44.331324 C101.731866,44.4484852 101.831122,44.5992842 101.894523,44.7704747 C101.968285,44.9754588 102.004072,45.1956556 101.999632,45.4172021 L101.999632,48.9964004 L101.296452,48.9964004 L101.296452,45.79276 C101.296891,45.6502871 101.285631,45.5080809 101.262817,45.3680076 C101.243794,45.2443261 101.201477,45.1268332 101.138788,45.0236463 C101.074143,44.9223216 100.98709,44.8424076 100.886526,44.7920723 C100.753354,44.7295825 100.609965,44.7005284 100.466089,44.7068818 C100.163969,44.6875391 99.8680846,44.8102442 99.6472886,45.0464437 C99.4431906,45.2893281 99.3356183,45.6173689 99.3498296,45.9535419 L99.3498296,48.9940007 L98.6466492,48.9940007 L98.6466492,45.79276 C98.6477501,45.6469048 98.6354197,45.5013214 98.609861,45.3584087 C98.5881397,45.2348387 98.5445004,45.1176485 98.4816278,45.0140474 C98.4194486,44.9150538 98.3352735,44.8367741 98.2377745,44.7872728 C98.113243,44.7288465 97.9792207,44.7014389 97.8446661,44.7068818 C97.6616724,44.701027 97.4805122,44.7498323 97.3191202,44.848466 C97.0589569,45.0113224 96.8614204,45.2791793 96.7651948,45.5995816 C96.7280521,45.7150932 96.7071228,45.8365761 96.7031804,45.9595412 L96.7031804,49 L96,49 L96,44.1117486 L96.6621878,44.1117486 Z" id="Path" fill="#435363"></path>
                    <path d="M105.252992,48.8943958 L105.252992,48.1185577 L105.23399,48.1185577 C105.087203,48.3994968 104.863222,48.6313649 104.589116,48.7861393 C104.302994,48.9338755 103.985027,49.0070493 103.663966,48.9990437 C103.393594,49.0071291 103.124116,48.9638837 102.869454,48.8715417 C102.670959,48.7966761 102.494159,48.6726103 102.355218,48.5106867 C102.221596,48.3471694 102.127279,48.1544668 102.079691,47.947753 C102.024675,47.7112878 101.997959,47.4689752 102.000121,47.2260431 L102.000121,44 L102.794634,44 L102.794634,47.3138512 C102.780104,47.5805645 102.874596,47.8415781 103.055909,48.0355611 C103.249924,48.2198374 103.510052,48.3154852 103.775602,48.300188 C103.991146,48.3054118 104.205549,48.2669703 104.406224,48.1871201 C104.577006,48.116093 104.729087,48.0057171 104.850391,47.8647564 C104.970636,47.7222325 105.061131,47.5565156 105.116416,47.3776022 C105.177429,47.1798802 105.207483,46.9736983 105.205487,46.7665545 L105.205487,44 L106,44 L106,48.8943958 L105.252992,48.8943958 Z" id="Path" fill="#435363"></path>
                    <path d="M107.661137,44.1117486 L107.661137,44.8316678 L107.677954,44.8316678 C108.142841,44.0531137 109.036825,43.7801244 109.780138,44.1897399 C110.001739,44.3245271 110.165967,44.5561625 110.235261,44.8316678 C110.372926,44.5730561 110.568483,44.3610015 110.801799,44.2173368 C111.039482,44.0715867 111.305613,43.9968753 111.575403,44.0001612 C111.772101,43.9976418 111.968236,44.0246706 112.158759,44.0805521 C112.321271,44.1279222 112.47339,44.2133172 112.605473,44.331324 C112.731866,44.4484852 112.831122,44.5992842 112.894523,44.7704747 C112.968285,44.9754588 113.004072,45.1956556 112.999632,45.4172021 L112.999632,48.9964004 L112.296452,48.9964004 L112.296452,45.79276 C112.296891,45.6502871 112.285631,45.5080809 112.262817,45.3680076 C112.243794,45.2443261 112.201477,45.1268332 112.138788,45.0236463 C112.074143,44.9223216 111.98709,44.8424076 111.886526,44.7920723 C111.753354,44.7295825 111.609965,44.7005284 111.466089,44.7068818 C111.163969,44.6875391 110.868085,44.8102442 110.647289,45.0464437 C110.443191,45.2893281 110.335618,45.6173689 110.34983,45.9535419 L110.34983,48.9940007 L109.646649,48.9940007 L109.646649,45.79276 C109.64775,45.6469048 109.63542,45.5013214 109.609861,45.3584087 C109.58814,45.2348387 109.5445,45.1176485 109.481628,45.0140474 C109.419449,44.9150538 109.335274,44.8367741 109.237774,44.7872728 C109.113243,44.7288465 108.979221,44.7014389 108.844666,44.7068818 C108.661672,44.701027 108.480512,44.7498323 108.31912,44.848466 C108.058957,45.0113224 107.86142,45.2791793 107.765195,45.5995816 C107.728052,45.7150932 107.707123,45.8365761 107.70318,45.9595412 L107.70318,49 L107,49 L107,44.1117486 L107.661137,44.1117486 Z" id="Path" fill="#435363"></path>
                    <path d="M114.890358,47.8265113 C114.961236,47.9449045 115.059894,48.0435788 115.177495,48.1136973 C115.301707,48.1870414 115.437108,48.2387573 115.578098,48.2667063 C115.730532,48.2980005 115.885713,48.3133813 116.041223,48.312609 C116.169449,48.3120057 116.297488,48.3025681 116.424459,48.2843612 C116.551596,48.2675407 116.675867,48.2330874 116.793801,48.1819629 C116.903227,48.1347462 116.998903,48.059774 117.071676,47.9642193 C117.147598,47.8582105 117.18596,47.7291857 117.18051,47.5981748 C117.189362,47.4128587 117.101327,47.2365567 116.948948,47.1344399 C116.773752,47.0191044 116.5814,46.933258 116.379304,46.8802097 C116.147742,46.8150828 115.89997,46.7562332 115.635989,46.7036608 C115.381468,46.6551979 115.132426,46.5806675 114.892673,46.4812093 C114.675047,46.3930102 114.480184,46.2553126 114.32303,46.0786781 C114.159465,45.8758079 114.07682,45.6178861 114.091467,45.3560049 C114.085606,45.1380062 114.141033,44.9228304 114.251245,44.7357301 C114.354768,44.5655774 114.494905,44.4215092 114.661111,44.3143669 C114.83562,44.2052235 115.026458,44.1257156 115.226123,44.0789685 C115.43025,44.0271727 115.639795,44.0006938 115.850184,44.0001101 C116.098073,43.9981877 116.34553,44.0214508 116.588868,44.0695526 C116.80083,44.1090261 117.003536,44.1888958 117.186299,44.304951 C117.361021,44.4211688 117.503685,44.5807806 117.600796,44.7686859 C117.711968,44.9951012 117.77396,45.2431654 117.782573,45.496067 L117.007996,45.496067 C117.002384,45.3598259 116.962522,45.2273195 116.892215,45.1111906 C116.826933,45.0104694 116.739792,44.9263142 116.637496,44.8651992 C116.529507,44.8019036 116.41224,44.7566039 116.290153,44.7310221 C116.165782,44.703448 116.038842,44.689636 115.911548,44.6898274 C115.795229,44.6902671 115.679112,44.6997104 115.564204,44.7180752 C115.452484,44.7347563 115.343698,44.7676553 115.241175,44.8157656 C115.151114,44.8585696 115.0719,44.9217832 115.009612,45.0005533 C114.945959,45.0873158 114.913657,45.1937244 114.918145,45.3018633 C114.91491,45.429939 114.966434,45.5531545 115.059398,45.63966 C115.164561,45.7362174 115.286733,45.8116933 115.419478,45.8621115 C115.579225,45.9251724 115.743803,45.9747732 115.911548,46.0104125 C116.09371,46.0504302 116.275873,46.0920173 116.458035,46.1351737 C116.650385,46.1780572 116.840504,46.2306953 117.027679,46.2928906 C117.202798,46.349619 117.368638,46.4325241 117.519749,46.538882 C117.661913,46.6397057 117.7805,46.7711072 117.867093,46.9237584 C117.960286,47.0999792 118.005832,47.2981758 117.999084,47.4981305 C118.008398,47.7513501 117.94655,48.0020263 117.82078,48.2208036 C117.704651,48.4104365 117.545932,48.5693646 117.357656,48.6845385 C117.15812,48.8052133 116.93891,48.8885295 116.710438,48.9305298 C116.4746,48.9764414 116.235035,48.9996914 115.994911,48.9999724 C115.743668,49.0010073 115.493127,48.9729714 115.248122,48.9164059 C115.023565,48.8662754 114.810291,48.7736435 114.61943,48.6433438 C114.43573,48.5152303 114.285511,48.3435359 114.181777,48.1431221 C114.065757,47.9088794 114.003601,47.6509039 114,47.3886702 L114.774576,47.3886702 C114.775121,47.5423608 114.815024,47.6932584 114.890358,47.8265113 Z" id="Path" fill="#435363"></path>
                </g>
            </g>
        </g>
    </g>
</svg>