<?xml version="1.0" encoding="UTF-8"?>
<svg width="23px" height="23px" viewBox="0 0 23 23" version="1.1" xmlns="http://www.w3.org/2000/svg" xmlns:xlink="http://www.w3.org/1999/xlink">
    <!-- Generator: Sketch 52.3 (67297) - http://www.bohemiancoding.com/sketch -->
    <title>play-button</title>
    <desc>Created with Sketch.</desc>
    <g id="Desktop" stroke="none" stroke-width="1" fill="none" fill-rule="evenodd">
        <g id="Home" transform="translate(-1171.000000, -746.000000)" fill="#7CA3DC" fill-rule="nonzero">
            <g id="Play-Button" transform="translate(1171.000000, 746.000000)">
                <g id="play-button">
                    <path d="M21.457259,5.75088238 C18.2821916,0.251424248 11.2498229,-1.63294298 5.75086909,1.54274784 C0.251475919,4.7174134 -1.63294228,11.7495722 1.54271103,17.2488107 C4.71733908,22.7482688 11.7494881,24.632929 17.2485151,21.4575311 C22.7479815,18.281767 24.6332785,11.2499743 21.457259,5.75088238 Z M16.0989848,19.4653643 C11.7001294,22.0059756 6.07389756,20.4983939 3.53404865,16.0986077 C0.993613882,11.6997003 2.50169036,6.07347527 6.90069227,3.53410899 C11.2998406,0.993644211 16.9257795,2.50107941 19.4657749,6.90071915 C22.0058435,11.3002856 20.4982064,16.925339 16.0989848,19.4653643 Z M15.6391581,11.0326178 L9.61842288,7.52115205 C9.06976513,7.2008294 8.62722124,7.45692641 8.63029701,8.09156659 L8.66112788,15.0614771 C8.66391072,15.6959708 9.1118738,15.9542648 9.66214267,15.6364321 L15.6368146,12.1869218 C16.1864976,11.8696749 16.1876694,11.3529404 15.6391581,11.0326178 Z" id="Shape"></path>
                </g>
            </g>
        </g>
    </g>
</svg>