<?xml version="1.0" encoding="UTF-8"?>
<svg width="36px" height="36px" viewBox="0 0 36 36" version="1.1" xmlns="http://www.w3.org/2000/svg" xmlns:xlink="http://www.w3.org/1999/xlink">
    <!-- Generator: Sketch 52.3 (67297) - http://www.bohemiancoding.com/sketch -->
    <title>price-match</title>
    <desc>Created with Sketch.</desc>
    <g id="Desktop" stroke="none" stroke-width="1" fill="none" fill-rule="evenodd">
        <g id="Home" transform="translate(-766.000000, -3441.000000)" fill="#FFFFFF">
            <g id="price-match" transform="translate(766.000000, 3441.000000)">
                <path d="M35.7431946,25.9043884 C35.0755005,24.3424072 33.2976379,23.6488953 31.7631226,24.1608582 L25.3759461,26.2897339 C25.3575439,26.0263367 25.3059082,25.7637634 25.2202148,25.5066834 C24.9529724,24.7049561 24.3893738,24.0551148 23.6332398,23.6771851 L14.8870239,19.3040771 C13.7040711,18.7124633 12.3516541,18.5866699 11.0799866,18.9500427 L8.47045898,19.6957398 C8.23699955,18.1796265 6.92385862,17.0153504 5.34347536,17.0153504 L1.0546875,17.0153504 C0.472137469,17.0153504 -3.16191517e-13,17.4874878 -3.16191517e-13,18.0700379 L-3.16191517e-13,32.8353882 C-3.16191517e-13,33.4176636 0.472137469,33.8900757 1.0546875,33.8900757 L7.45285036,33.8900757 C8.03540039,33.8900757 8.50753786,33.4176636 8.50753786,32.8353882 L8.50753786,32.269867 L13.9603271,34.9961243 C16.4012146,36.2156067 19.3103943,36.3587036 21.9413452,35.2298584 L34.0812378,30.0577698 C35.687439,29.3700256 36.4320373,27.5111389 35.7431946,25.9043884 Z M6.39816286,31.7807007 L2.109375,31.7807007 L2.109375,19.1247254 L5.34375,19.1247254 C5.9252014,19.1247254 6.39816286,19.5976868 6.39816286,20.1794129 L6.39816286,31.7807007 Z M33.2528687,28.1181336 L21.1121521,33.2904968 C19.0843506,34.1603394 16.8250122,34.0694275 14.9032287,33.1092224 L8.50753786,29.9116516 L8.50753786,21.8787231 L11.6595154,20.9783936 C12.4225159,20.7600403 13.2338562,20.8355713 13.9438477,21.1907043 L22.6900635,25.5638123 C23.2102661,25.8239136 23.4220276,26.4586487 23.1619262,26.979126 C22.8966064,27.509491 22.2583008,27.7066955 21.7466125,27.4507141 L16.5283813,24.8417359 C15.1971131,24.1759644 13.5593262,24.5393371 12.634552,25.7055359 C12.2725525,26.1617432 12.3489075,26.8253174 12.8053894,27.1870422 C13.2615967,27.5490418 13.9251709,27.4726868 14.2871704,27.0162049 C14.5953369,26.6275635 15.1410828,26.5064392 15.5849304,26.7283631 L20.8031617,29.3373413 C21.9506836,29.9111023 23.3583069,29.7405395 24.3341675,28.8605347 L32.430542,26.1617432 C32.9570617,25.9859619 33.5819092,26.2147522 33.803833,26.7344055 C34.0367432,27.2771301 33.7782898,27.8929138 33.2528687,28.1181336 Z" id="Shape" fill-rule="nonzero"></path>
                <path d="M23.2709656,7.5234375 C23.2709656,8.10571289 22.7988281,8.578125 22.2162781,8.578125 C21.6337281,8.578125 21.1615906,8.10571289 21.1615906,7.5234375 C21.1615906,6.94088747 21.6337281,6.46875 22.2162781,6.46875 C22.7988281,6.46875 23.2709656,6.94088747 23.2709656,7.5234375 Z" id="Path"></path>
                <path d="M27.489441,11.7419129 C27.489441,12.3244629 27.0173035,12.7966004 26.4350281,12.7966004 C25.8524781,12.7966004 25.3803406,12.3244629 25.3803406,11.7419129 C25.3803406,11.1596375 25.8524781,10.6872254 26.4350281,10.6872254 C27.0173035,10.6872254 27.489441,11.1596375 27.489441,11.7419129 Z" id="Path"></path>
                <path d="M27.1826477,6.77746582 C26.7709351,6.36575316 26.1029663,6.36575316 25.6912537,6.77746582 L21.4725037,10.9962158 C21.0605164,11.4082031 21.0605164,12.0758972 21.4725037,12.4876098 C21.8842163,12.8995972 22.5521851,12.8995972 22.9638977,12.4876098 L27.1826477,8.26913454 C27.594635,7.85714723 27.594635,7.18945313 27.1826477,6.77746582 Z" id="Path"></path>
                <path d="M13.1220703,12.5656128 L23.6686707,21.0028381 C23.8612061,21.1569214 24.0943909,21.2341004 24.3275757,21.2341004 C24.5596619,21.2341004 24.791748,21.1577453 24.9837341,21.0050354 L35.6006469,12.5678101 C35.9519348,12.2884826 36.0881653,11.8179932 35.9403992,11.3944702 C35.792633,10.9709473 35.3930054,10.6872254 34.9444885,10.6872254 L31.7103882,10.6872254 L31.7103882,1.0546875 C31.7103882,0.472137469 31.2379761,-1.58095759e-13 30.6557007,-1.58095759e-13 L17.9997254,-1.58095759e-13 C17.4171753,-1.58095759e-13 16.9450379,0.472137469 16.9450379,1.0546875 L16.9450379,10.6872254 L13.7809754,10.6872254 C13.3330078,10.6872254 12.9339295,10.9701233 12.7858887,11.3928223 C12.6375732,11.8155213 12.7724304,12.2857361 13.1220703,12.5656128 Z M17.9997254,12.7966004 C18.5820007,12.7966004 19.0544129,12.3244629 19.0544129,11.7419129 L19.0544129,2.109375 L29.6010132,2.109375 L29.6010132,11.7419129 C29.6010132,12.3244629 30.0731506,12.7966004 30.6557007,12.7966004 L31.9224243,12.7966004 L24.329773,18.8302918 L16.7876587,12.7966004 L17.9997254,12.7966004 Z" id="Shape" fill-rule="nonzero"></path>
            </g>
        </g>
    </g>
</svg>