<?xml version="1.0" encoding="UTF-8"?>
<svg width="56px" height="56px" viewBox="0 0 56 56" version="1.1" xmlns="http://www.w3.org/2000/svg" xmlns:xlink="http://www.w3.org/1999/xlink">
    <!-- Generator: Sketch 52.2 (67145) - http://www.bohemiancoding.com/sketch -->
    <title>remote-control</title>
    <desc>Created with Sketch.</desc>
    <g id="Page-1" stroke="none" stroke-width="1" fill="none" fill-rule="evenodd">
        <g id="Desktop-HD" transform="translate(-293.000000, -1015.000000)" fill="#7CA3DC" fill-rule="nonzero">
            <g id="Feature-01" transform="translate(135.000000, 980.000000)">
                <g id="remote-control" transform="translate(158.000000, 35.000000)">
                    <path d="M40.0558082,17.7078352 L37.1683992,17.7078352 C36.7227131,15.5412552 34.8167229,13.985447 32.6046647,13.9822635 L28.879093,13.9822635 L28.879093,5.42872918 C30.1620322,4.9748571 30.9315229,3.66281191 30.7014033,2.32166057 C30.4712837,0.980509356 29.3084069,0 27.9477001,0 C26.5865385,0 25.4236617,0.980509356 25.1935421,2.32166057 C24.9634226,3.66281191 25.733368,4.9748571 27.0163071,5.42872918 L27.0163071,13.9822635 L23.2907354,13.9822635 C21.0786772,13.985447 19.1722323,15.5412552 18.727001,17.7078352 L15.839592,17.7078352 C7.0986876,17.7178405 0.0154625198,24.8010655 0.00591215634,33.541515 L0.00591215634,49.3751949 C0.0100051975,52.9743373 2.9265203,55.8908524 6.52566265,55.8949454 L49.3697375,55.8949454 C52.96888,55.8908524 55.885395,52.9743373 55.889488,49.3751949 L55.889488,33.541515 C55.8794829,24.8010655 48.7962578,17.7178405 40.0558082,17.7078352 Z M27.9477001,1.87415538 C28.4620582,1.87415538 28.879093,2.29119029 28.879093,2.80554831 C28.879093,3.3203612 28.4620582,3.73694124 27.9477001,3.73694124 C27.4333419,3.73694124 27.0163071,3.3203612 27.0163071,2.80554831 C27.0163071,2.29119029 27.4333419,1.87415538 27.9477001,1.87415538 Z M23.2907354,15.8450493 L32.6046647,15.8450493 C33.7884615,15.8468685 34.8431003,16.5927105 35.23967,17.7078352 L20.6557303,17.7078352 C21.0518451,16.5927105 22.1069386,15.8468685 23.2907354,15.8450493 Z M54.0267022,49.3751949 C54.0235188,51.9460759 51.9401637,54.0294309 49.3697375,54.0321595 L6.52566265,54.0321595 C3.9547817,54.0294309 1.87142674,51.9460759 1.868698,49.3751949 L1.868698,33.541515 C1.87733888,25.829327 8.12694912,19.5797167 15.839592,19.5706211 L40.0558082,19.5706211 C47.7679964,19.5797167 54.0180613,25.829327 54.0267022,33.541515 L54.0267022,49.3751949 Z" id="Shape"></path>
                    <path d="M18.6337708,46.5810161 L7.45705558,46.5810161 C6.94269745,46.5810161 6.52566265,46.998051 6.52566265,47.512409 L6.52566265,51.2379807 C6.52566265,51.7527936 6.94269745,52.1693737 7.45705558,52.1693737 L18.6337708,52.1693737 C19.1481289,52.1693737 19.5651637,51.7527936 19.5651637,51.2379807 L19.5651637,47.512409 C19.5651637,46.998051 19.1481289,46.5810161 18.6337708,46.5810161 Z M17.7023778,50.3065878 L8.38844852,50.3065878 L8.38844852,48.4438019 L17.7023778,48.4438019 L17.7023778,50.3065878 Z" id="Shape"></path>
                    <path d="M31.6732718,46.5810161 L24.2221283,46.5810161 C23.7077702,46.5810161 23.2907354,46.998051 23.2907354,47.512409 L23.2907354,51.2379807 C23.2907354,51.7527936 23.7077702,52.1693737 24.2221283,52.1693737 L31.6732718,52.1693737 C32.1876299,52.1693737 32.6046647,51.7527936 32.6046647,51.2379807 L32.6046647,47.512409 C32.6046647,46.998051 32.1876299,46.5810161 31.6732718,46.5810161 Z M30.7418789,50.3065878 L25.1535213,50.3065878 L25.1535213,48.4438019 L30.7418789,48.4438019 L30.7418789,50.3065878 Z" id="Shape"></path>
                    <path d="M48.4383446,46.5810161 L37.2616294,46.5810161 C36.7472713,46.5810161 36.3302365,46.998051 36.3302365,47.512409 L36.3302365,51.2379807 C36.3302365,51.7527936 36.7472713,52.1693737 37.2616294,52.1693737 L48.4383446,52.1693737 C48.9527027,52.1693737 49.3697375,51.7527936 49.3697375,51.2379807 L49.3697375,47.512409 C49.3697375,46.998051 48.9527027,46.5810161 48.4383446,46.5810161 Z M47.5069516,50.3065878 L38.1930223,50.3065878 L38.1930223,48.4438019 L47.5069516,48.4438019 L47.5069516,50.3065878 Z" id="Shape"></path>
                    <path d="M40.0558082,23.2961928 C34.3974143,23.2961928 29.8104859,27.8835759 29.8104859,33.541515 C29.8104859,39.1999091 34.3974143,43.7868373 40.0558082,43.7868373 C45.7142022,43.7868373 50.3011304,39.1999091 50.3011304,33.541515 C50.2943088,27.8863046 45.7114735,23.3030146 40.0558082,23.2961928 Z M40.0558082,41.9240514 C35.4261304,41.9240514 31.6732718,38.1711928 31.6732718,33.541515 C31.6732718,28.9122922 35.4261304,25.1589787 40.0558082,25.1589787 C44.6850312,25.1589787 48.4383446,28.9122922 48.4383446,33.541515 C48.4328872,38.1689189 44.6832121,41.9190489 40.0558082,41.9240514 Z" id="Shape"></path>
                    <path d="M40.0558082,28.8845504 C37.4835629,28.8845504 35.3988435,30.9697245 35.3988435,33.541515 C35.3988435,36.1137604 37.4835629,38.1984797 40.0558082,38.1984797 C42.6275988,38.1984797 44.7127728,36.1137604 44.7127728,33.541515 C44.7095895,30.9710888 42.6262344,28.8877339 40.0558082,28.8845504 Z M40.0558082,36.3356938 C38.5122791,36.3356938 37.2616294,35.0850442 37.2616294,33.541515 C37.2616294,31.9984407 38.5122791,30.7473362 40.0558082,30.7473362 C41.5988826,30.7473362 42.849987,31.9984407 42.849987,33.541515 C42.849987,35.0850442 41.5988826,36.3356938 40.0558082,36.3356938 Z" id="Shape"></path>
                    <path d="M15.839592,23.2961928 C10.1811981,23.2961928 5.59426972,27.8835759 5.59426972,33.541515 C5.59426972,39.1999091 10.1811981,43.7868373 15.839592,43.7868373 C21.497986,43.7868373 26.0849142,39.1999091 26.0849142,33.541515 C26.0780926,27.8863046 21.4952572,23.3030146 15.839592,23.2961928 Z M15.839592,41.9240514 C11.2099142,41.9240514 7.45705558,38.1711928 7.45705558,33.541515 C7.45705558,28.9122922 11.2099142,25.1589787 15.839592,25.1589787 C20.468815,25.1589787 24.2221283,28.9122922 24.2221283,33.541515 C24.216671,38.1689189 20.4669958,41.9190489 15.839592,41.9240514 Z" id="Shape"></path>
                    <path d="M15.839592,28.8845504 C13.2673466,28.8845504 11.1826273,30.9697245 11.1826273,33.541515 C11.1826273,36.1137604 13.2673466,38.1984797 15.839592,38.1984797 C18.4113825,38.1984797 20.4965566,36.1137604 20.4965566,33.541515 C20.4933732,30.9710888 18.4100182,28.8877339 15.839592,28.8845504 Z M15.839592,36.3356938 C14.2960629,36.3356938 13.0454132,35.0850442 13.0454132,33.541515 C13.0454132,31.9984407 14.2960629,30.7473362 15.839592,30.7473362 C17.3826664,30.7473362 18.6337708,31.9984407 18.6337708,33.541515 C18.6337708,35.0850442 17.3826664,36.3356938 15.839592,36.3356938 Z" id="Shape"></path>
                </g>
            </g>
        </g>
    </g>
</svg>