<?xml version="1.0" encoding="UTF-8"?>
<svg width="42px" height="36px" viewBox="0 0 42 36" version="1.1" xmlns="http://www.w3.org/2000/svg" xmlns:xlink="http://www.w3.org/1999/xlink">
    <!-- Generator: Sketch 52.3 (67297) - http://www.bohemiancoding.com/sketch -->
    <title>return</title>
    <desc>Created with Sketch.</desc>
    <g id="Desktop" stroke="none" stroke-width="1" fill="none" fill-rule="evenodd">
        <g id="Home" transform="translate(-469.000000, -3443.000000)" fill="#FFFFFF">
            <g id="return" transform="translate(490.000000, 3461.000000) rotate(69.000000) translate(-490.000000, -3461.000000) translate(472.000000, 3443.000000)">
                <path d="M31.11675,1.62525 C30.28875,1.62525 29.61675,2.29725 29.61675,3.12525 L29.61675,4.3755 C26.39475,1.566 22.2855,0 17.90625,0 C8.0325,0 0,8.06175 0,17.97 C0,18.798 0.672,19.47 1.5,19.47 C2.328,19.47 3,18.798 3,17.97 C3,9.7155 9.687,3 17.90625,3 C21.5115,3 24.8985,4.2765 27.5685,6.56925 L26.19375,6.56925 C25.36575,6.56925 24.69375,7.24125 24.69375,8.06925 C24.69375,8.89725 25.36575,9.56925 26.19375,9.56925 L31.11675,9.56925 C31.94475,9.56925 32.61675,8.89725 32.61675,8.06925 L32.61675,3.12525 C32.61675,2.29725 31.94475,1.62525 31.11675,1.62525 Z" id="Path"></path>
                <path d="M34.5,16.53 C33.672,16.53 33,17.202 33,18.03 C33,26.2845 26.313,33 18.09375,33 C14.5305,33 11.1795,31.755 8.5245,29.5125 L9.96525,29.5125 C10.79325,29.5125 11.46525,28.8405 11.46525,28.0125 C11.46525,27.1845 10.79325,26.5125 9.96525,26.5125 L5.0415,26.5125 C5.028,26.5125 5.016,26.51625 5.00325,26.51625 C4.94625,26.51775 4.89,26.52525 4.833,26.5335 C4.791,26.5395 4.749,26.54325 4.70775,26.553 C4.65825,26.56425 4.6095,26.58225 4.56075,26.59875 C4.51575,26.6145 4.47,26.628 4.4265,26.6475 C4.38525,26.66625 4.34625,26.69025 4.3065,26.71275 C4.25925,26.73975 4.21275,26.766 4.1685,26.7975 C4.15725,26.80575 4.1445,26.81025 4.13325,26.81925 C4.10775,26.83875 4.08825,26.86275 4.06425,26.88375 C4.0245,26.91825 3.98475,26.95275 3.94875,26.99175 C3.915,27.02775 3.88575,27.06525 3.8565,27.1035 C3.82725,27.14175 3.79875,27.18 3.7725,27.2205 C3.74625,27.2625 3.72375,27.306 3.702,27.3495 C3.68025,27.39225 3.66,27.43575 3.64275,27.48075 C3.6255,27.52725 3.612,27.57375 3.59925,27.62175 C3.58725,27.6675 3.5745,27.71325 3.567,27.7605 C3.558,27.81375 3.55425,27.867 3.5505,27.921 C3.54825,27.95175 3.5415,27.98175 3.5415,28.01325 L3.5415,32.95725 C3.5415,33.78525 4.2135,34.45725 5.0415,34.45725 C5.8695,34.45725 6.5415,33.78525 6.5415,32.95725 L6.5415,31.76475 C9.73875,34.4865 13.7865,36 18.09375,36 C27.9675,36 36,27.93825 36,18.03 C36,17.202 35.328,16.53 34.5,16.53 Z" id="Path"></path>
            </g>
        </g>
    </g>
</svg>