<?xml version="1.0" encoding="UTF-8"?>
<svg width="25px" height="32px" viewBox="0 0 25 32" version="1.1" xmlns="http://www.w3.org/2000/svg" xmlns:xlink="http://www.w3.org/1999/xlink">
    <!-- Generator: Sketch 52.2 (67145) - http://www.bohemiancoding.com/sketch -->
    <title>shopping-bag</title>
    <desc>Created with Sketch.</desc>
    <g id="Page-1" stroke="none" stroke-width="1" fill="none" fill-rule="evenodd">
        <g id="Desktop-HD" transform="translate(-1280.000000, -17.000000)" fill="#4A4A4A" fill-rule="nonzero">
            <g id="Header" transform="translate(135.000000, 9.000000)">
                <g id="shopping-bag" transform="translate(1145.000000, 8.000000)">
                    <path d="M24.9936127,27.6613497 L23.205161,7.02822086 C23.166837,6.57014315 22.7899847,6.22331288 22.3492591,6.22331288 L18.6701584,6.22331288 C18.6190598,2.78118609 15.8725089,0 12.5,0 C9.12749106,0 6.38094021,2.78118609 6.32984159,6.22331288 L2.65074093,6.22331288 C2.203628,6.22331288 1.833163,6.57014315 1.79483904,7.02822086 L0.00638732754,27.6613497 C0.00638732754,27.6875256 0,27.7137014 0,27.7398773 C0,30.0891616 2.10143076,32 4.68829842,32 L20.3117016,32 C22.8985692,32 25,30.0891616 25,27.7398773 C25,27.7137014 25,27.6875256 24.9936127,27.6613497 Z M12.5,1.76687117 C14.9207971,1.76687117 16.8944813,3.75623722 16.94558,6.22331288 L8.05442003,6.22331288 C8.10551865,3.75623722 10.0792029,1.76687117 12.5,1.76687117 Z M20.3117016,30.2331288 L4.68829842,30.2331288 C3.06591722,30.2331288 1.75012775,29.1337423 1.72457844,27.7791411 L3.43638222,7.99672802 L6.32345427,7.99672802 L6.32345427,10.6797546 C6.32345427,11.1705521 6.70669392,11.5631902 7.18574348,11.5631902 C7.66479305,11.5631902 8.0480327,11.1705521 8.0480327,10.6797546 L8.0480327,7.99672802 L16.94558,7.99672802 L16.94558,10.6797546 C16.94558,11.1705521 17.3288196,11.5631902 17.8078692,11.5631902 C18.2869188,11.5631902 18.6701584,11.1705521 18.6701584,10.6797546 L18.6701584,7.99672802 L21.5572305,7.99672802 L23.2754216,27.7791411 C23.2498723,29.1337423 21.9276955,30.2331288 20.3117016,30.2331288 Z" id="Shape"></path>
                </g>
            </g>
        </g>
    </g>
</svg>