<?xml version="1.0" encoding="UTF-8"?>
<svg width="56px" height="56px" viewBox="0 0 56 56" version="1.1" xmlns="http://www.w3.org/2000/svg" xmlns:xlink="http://www.w3.org/1999/xlink">
    <!-- Generator: Sketch 52.2 (67145) - http://www.bohemiancoding.com/sketch -->
    <title>speed</title>
    <desc>Created with Sketch.</desc>
    <g id="Page-1" stroke="none" stroke-width="1" fill="none" fill-rule="evenodd">
        <g id="Desktop-HD" transform="translate(-1081.000000, -1016.000000)" fill="#7CA3DC">
            <g id="Feature-03" transform="translate(934.000000, 980.000000)">
                <g id="speed" transform="translate(147.000000, 36.000000)">
                    <path d="M28,0 C12.5360667,0 0,12.5360667 0,28 C0,43.4639333 12.5360667,56 28,56 C43.4639333,56 56,43.4639333 56,28 C55.9825,12.5433 43.4567,0.0175 28,0 Z M28,54.1333333 C13.5669333,54.1333333 1.86666667,42.4330667 1.86666667,28 C1.86666667,13.5669333 13.5669333,1.86666667 28,1.86666667 C42.4330667,1.86666667 54.1333333,13.5669333 54.1333333,28 C54.1168833,42.4261833 42.4261833,54.1168833 28,54.1333333 Z" id="Shape" fill-rule="nonzero"></path>
                    <path d="M28,3.73333333 C14.5979167,3.73333333 3.73333333,14.5979167 3.73333333,28 C3.73333333,41.4020833 14.5979167,52.2666667 28,52.2666667 C41.4020833,52.2666667 52.2666667,41.4020833 52.2666667,28 C52.2517333,14.6041 41.3959,3.74826667 28,3.73333333 Z M28,50.4 C15.6287833,50.4 5.6,40.3712167 5.6,28 C5.6,15.6287833 15.6287833,5.6 28,5.6 C40.3712167,5.6 50.4,15.6287833 50.4,28 C50.38565,40.36515 40.36515,50.38565 28,50.4 Z" id="Shape" fill-rule="nonzero"></path>
                    <rect id="Rectangle" x="6.53333333" y="27.0666667" width="3.73333333" height="1.86666667"></rect>
                    <rect id="Rectangle" x="45.7333333" y="27.0666667" width="3.73333333" height="1.86666667"></rect>
                    <polygon id="Rectangle" transform="translate(11.024675, 37.801899) rotate(-29.992901) translate(-11.024675, -37.801899) " points="9.15798121 36.8685524 12.8913691 36.8685524 12.8913691 38.7352464 9.15798121 38.7352464"></polygon>
                    <polygon id="Rectangle" transform="translate(44.974855, 18.200030) rotate(-29.992901) translate(-44.974855, -18.200030) " points="43.108161 17.2666829 46.8415488 17.2666829 46.8415488 19.1333768 43.108161 19.1333768"></polygon>
                    <polygon id="Rectangle" transform="translate(11.025651, 18.199563) rotate(-60.007099) translate(-11.025651, -18.199563) " points="10.0923043 16.3328687 11.9589982 16.3328687 11.9589982 20.0662566 10.0923043 20.0662566"></polygon>
                    <polygon id="Rectangle" transform="translate(44.975493, 37.795402) rotate(-60.007099) translate(-44.975493, -37.795402) " points="44.0421463 35.9287079 45.9088402 35.9287079 45.9088402 39.6620958 44.0421463 39.6620958"></polygon>
                    <polygon id="Rectangle" transform="translate(18.196450, 11.025943) rotate(-29.992901) translate(-18.196450, -11.025943) " points="17.2631027 9.1592486 19.1297966 9.1592486 19.1297966 12.8926365 17.2631027 12.8926365"></polygon>
                    <rect id="Rectangle" x="27.0666667" y="6.53333333" width="1.86666667" height="3.73333333"></rect>
                    <polygon id="Rectangle" transform="translate(37.799150, 11.024516) rotate(-60.007099) translate(-37.799150, -11.024516) " points="35.9324559 10.0911686 39.6658438 10.0911686 39.6658438 11.9578625 35.9324559 11.9578625"></polygon>
                    <polygon id="Rectangle" transform="translate(8.616412, 22.805488) rotate(-75.000671) translate(-8.616412, -22.805488) " points="7.68310668 21.4055294 9.54971758 21.4055294 9.54971758 24.2054457 7.68310668 24.2054457"></polygon>
                    <polygon id="Rectangle" transform="translate(47.376509, 33.191804) rotate(-75.000671) translate(-47.376509, -33.191804) " points="46.443204 31.7918456 48.3098149 31.7918456 48.3098149 34.5917619 46.443204 34.5917619"></polygon>
                    <polygon id="Rectangle" transform="translate(13.810939, 13.810494) rotate(-45.000000) translate(-13.810939, -13.810494) " points="12.8776143 12.4105076 14.7442631 12.4105076 14.7442631 15.2104808 12.8776143 15.2104808"></polygon>
                    <polygon id="Rectangle" transform="translate(22.802095, 8.618027) rotate(-14.999329) translate(-22.802095, -8.618027) " points="21.86879 7.21806836 23.7354009 7.21806836 23.7354009 10.0179847 21.86879 10.0179847"></polygon>
                    <polygon id="Rectangle" transform="translate(33.191842, 8.622788) rotate(-75.000671) translate(-33.191842, -8.622788) " points="31.7918838 7.68948263 34.5918002 7.68948263 34.5918002 9.55609353 31.7918838 9.55609353"></polygon>
                    <polygon id="Rectangle" transform="translate(42.189111, 13.813204) rotate(-45.000000) translate(-42.189111, -13.813204) " points="40.7891242 12.8798793 43.5890973 12.8798793 43.5890973 14.746528 40.7891242 14.746528"></polygon>
                    <polygon id="Rectangle" transform="translate(47.387396, 22.805710) rotate(-14.999329) translate(-47.387396, -22.805710) " points="45.9874382 21.8724044 48.7873545 21.8724044 48.7873545 23.7390153 45.9874382 23.7390153"></polygon>
                    <polygon id="Rectangle" transform="translate(8.616450, 33.193213) rotate(-14.999329) translate(-8.616450, -33.193213) " points="7.2164922 32.2599079 10.0164085 32.2599079 10.0164085 34.1265188 7.2164922 34.1265188"></polygon>
                    <path d="M31.9600167,12.6428167 C23.4740333,10.4570667 14.8229667,15.5642667 12.6371,24.0501333 C11.6015667,28.0704667 12.1829167,32.3366167 14.2566667,35.9332167 C14.5278,36.3715333 15.1030833,36.5071 15.5414,36.23585 C15.9611667,35.97615 16.1061833,35.4344667 15.8722667,34.9998833 C12.0108333,28.3011167 14.3110333,19.7404667 21.0098,15.8790333 C27.7085667,12.0176 36.2692167,14.3178 40.13065,21.0165667 C41.9601,24.19025 42.4727333,27.9545 41.55865,31.50175 C41.4297333,32.0012 41.7302667,32.5105667 42.2297167,32.6394833 C42.7291667,32.7684 43.2385333,32.4678667 43.36745,31.9684167 L43.36745,31.9656167 C45.5532,23.47975 40.4458833,14.8286833 31.9600167,12.6428167 Z" id="Path"></path>
                    <path d="M41.6574667,34.7442667 L31.3908,26.3442667 C31.3628,26.3271167 31.33375,26.3114833 31.304,26.2976 C30.36705,24.4672167 28.1237833,23.74295 26.2935167,24.6799 C24.4631333,25.61685 23.7388667,27.8601167 24.6758167,29.6903833 C25.2777,30.86615 26.4574333,31.6349833 27.776,31.7109333 L40.7493333,36.3449333 C40.8510667,36.3818 40.9585167,36.4004667 41.0666667,36.4 C41.5821,36.3998833 41.9998833,35.9819833 41.9998833,35.4664333 C41.9997667,35.18655 41.8741167,34.9214833 41.6574667,34.7442667 Z M28,29.8666667 C26.9690167,29.8666667 26.1333333,29.0309833 26.1333333,28 C26.1333333,26.9690167 26.9690167,26.1333333 28,26.1333333 C29.0309833,26.1333333 29.8666667,26.9690167 29.8666667,28 C29.8666667,29.0309833 29.0309833,29.8666667 28,29.8666667 Z M30.5433333,30.7178667 C31.05935,30.2345167 31.4266167,29.6137333 31.6017333,28.9286667 L36.3066667,32.7730667 L30.5433333,30.7178667 Z" id="Shape" fill-rule="nonzero"></path>
                    <path d="M31.7333333,37.3333333 L24.2666667,37.3333333 C21.6893833,37.3333333 19.6,39.4227167 19.6,42 C19.6,44.5772833 21.6893833,46.6666667 24.2666667,46.6666667 L31.7333333,46.6666667 C34.3106167,46.6666667 36.4,44.5772833 36.4,42 C36.4,39.4227167 34.3106167,37.3333333 31.7333333,37.3333333 Z M31.7333333,44.8 L24.2666667,44.8 C22.72025,44.8 21.4666667,43.5464167 21.4666667,42 C21.4666667,40.4535833 22.72025,39.2 24.2666667,39.2 L31.7333333,39.2 C33.27975,39.2 34.5333333,40.4535833 34.5333333,42 C34.5333333,43.5464167 33.27975,44.8 31.7333333,44.8 Z" id="Shape" fill-rule="nonzero"></path>
                    <path d="M26.1333333,41.0666667 L24.2666667,41.0666667 C23.7512333,41.0666667 23.3333333,41.4845667 23.3333333,42 C23.3333333,42.5154333 23.7512333,42.9333333 24.2666667,42.9333333 L26.1333333,42.9333333 C26.6487667,42.9333333 27.0666667,42.5154333 27.0666667,42 C27.0666667,41.4845667 26.6487667,41.0666667 26.1333333,41.0666667 Z" id="Path"></path>
                    <path d="M31.7333333,41.0666667 L29.8666667,41.0666667 C29.3512333,41.0666667 28.9333333,41.4845667 28.9333333,42 C28.9333333,42.5154333 29.3512333,42.9333333 29.8666667,42.9333333 L31.7333333,42.9333333 C32.2487667,42.9333333 32.6666667,42.5154333 32.6666667,42 C32.6666667,41.4845667 32.2487667,41.0666667 31.7333333,41.0666667 Z" id="Path"></path>
                </g>
            </g>
        </g>
    </g>
</svg>