<?xml version="1.0" encoding="UTF-8"?>
<svg width="25px" height="20px" viewBox="0 0 25 20" version="1.1" xmlns="http://www.w3.org/2000/svg" xmlns:xlink="http://www.w3.org/1999/xlink">
    <!-- Generator: Sketch 52.3 (67297) - http://www.bohemiancoding.com/sketch -->
    <title>Path</title>
    <desc>Created with Sketch.</desc>
    <g id="Desktop" stroke="none" stroke-width="1" fill="none" fill-rule="evenodd">
        <g id="Home" transform="translate(-1086.000000, -3722.000000)" fill="#4A4A4A">
            <path d="M1110.57831,3724.37984 C1109.67369,3724.78068 1108.70305,3725.05253 1107.68321,3725.1739 C1108.72454,3724.55032 1109.52165,3723.56124 1109.89944,3722.38631 C1108.92265,3722.96378 1107.84446,3723.38309 1106.69562,3723.6104 C1105.77566,3722.629 1104.46711,3722.01771 1103.0157,3722.01771 C1100.2312,3722.01771 1097.97349,3724.27542 1097.97349,3727.05839 C1097.97349,3727.45309 1098.01803,3727.83859 1098.10406,3728.20723 C1093.91426,3727.99679 1090.19904,3725.98944 1087.71249,3722.9392 C1087.27783,3723.68257 1087.03056,3724.54876 1087.03056,3725.47337 C1087.03056,3727.22273 1087.92137,3728.76627 1089.27293,3729.66932 C1088.44663,3729.64169 1087.66948,3729.41438 1086.98912,3729.03655 L1086.98912,3729.09952 C1086.98912,3731.54153 1088.72771,3733.5796 1091.03301,3734.04345 C1090.61064,3734.15711 1090.16526,3734.22008 1089.7045,3734.22008 C1089.37892,3734.22008 1089.06406,3734.18783 1088.75534,3734.12639 C1089.39731,3736.13068 1091.2588,3737.58819 1093.4643,3737.62815 C1091.73952,3738.97972 1089.56474,3739.78297 1087.20261,3739.78297 C1086.79562,3739.78297 1086.39474,3739.75839 1086.00004,3739.71386 C1088.23165,3741.14683 1090.881,3741.98233 1093.72847,3741.98233 C1103.00349,3741.98233 1108.07337,3734.29996 1108.07337,3727.63743 L1108.05647,3726.9847 C1109.04707,3726.27815 1109.90406,3725.39044 1110.57831,3724.37984 Z" id="Path"></path>
        </g>
    </g>
</svg>